<?xml version="1.0" encoding="utf-8"?>
<!-- Generator: Adobe Illustrator 25.2.3, SVG Export Plug-In . SVG Version: 6.00 Build 0)  -->
<svg version="1.1" id="Layer_1" xmlns="http://www.w3.org/2000/svg" xmlns:xlink="http://www.w3.org/1999/xlink" x="0px" y="0px"
	 viewBox="0 0 252 109.4" style="enable-background:new 0 0 252 109.4;" xml:space="preserve">
<style type="text/css">
	.st0{fill:url(#SVGID_1_);}
	.st1{fill:url(#SVGID_2_);}
	.st2{fill:url(#SVGID_3_);}
	.st3{fill:url(#SVGID_4_);}
	.st4{fill:#2D2D2B;}
</style>
<g>
	<g>
		<g>
			
				<radialGradient id="SVGID_1_" cx="-6000.0171" cy="-8242.3037" r="51.8321" gradientTransform="matrix(0.9986 5.233597e-02 -5.233597e-02 0.9986 5806.0322 8621.7725)" gradientUnits="userSpaceOnUse">
				<stop  offset="0" style="stop-color:#00CDFE"/>
				<stop  offset="0.4105" style="stop-color:#1F7CDC"/>
				<stop  offset="0.8088" style="stop-color:#2A2A96"/>
			</radialGradient>
			<path class="st0" d="M221.8,53.3c8.9-6.9,16-16,20.4-26.7c0.2,0.2,0.6,0.6,1,1c0,0,0,0,0.1,0.1c1,1.1,2,2.4,2.9,3.6
				c6.5,9.4,7.6,21.8,3.1,32.3c-1.3,3.1-3.1,5.8-5.3,8.3c0.7-5.7-1.2-10.8-6.4-13.7c-1.6-0.9-3.2-1.5-4.9-2.1l0,0
				c-3.9-1-6.2-1.6-9-2.3c-0.5-0.1-1.1-0.2-1.6-0.4C222,53.3,221.9,53.3,221.8,53.3z"/>
			
				<radialGradient id="SVGID_2_" cx="-6051.4385" cy="-8207.1807" r="68.1902" gradientTransform="matrix(0.9986 5.233597e-02 -5.233597e-02 0.9986 5806.0322 8621.7725)" gradientUnits="userSpaceOnUse">
				<stop  offset="0" style="stop-color:#00CDFE"/>
				<stop  offset="0.4661" style="stop-color:#1F7CDC"/>
				<stop  offset="0.8" style="stop-color:#2A2A96"/>
				<stop  offset="1" style="stop-color:#160C5A"/>
			</radialGradient>
			<path class="st1" d="M193,109c1-11.4,5.9-22.2,12.6-31.4c6.2-8.5,14.4-15.5,23.8-20.1c1-0.5,3.1-1.5,3.2-1.5l0,0
				c1.7,0.6,3.4,1.3,4.9,2.1c5.3,2.9,7.1,8,6.4,13.7c-4.5,5.2-10.6,9.1-16.7,12.3c-8.7,4.6-17.8,7.6-25.3,14.1
				C198.9,101.1,195,105.2,193,109z"/>
		</g>
		<g>
			
				<radialGradient id="SVGID_3_" cx="3965.73" cy="9058.5039" r="51.832" gradientTransform="matrix(-0.9986 -5.233597e-02 5.232693e-02 -0.9986 3680.5674 9286.165)" gradientUnits="userSpaceOnUse">
				<stop  offset="0" style="stop-color:#0AF0C8"/>
				<stop  offset="0.1806" style="stop-color:#07DECE"/>
				<stop  offset="0.5" style="stop-color:#00B4DC"/>
				<stop  offset="1" style="stop-color:#005ABE"/>
			</radialGradient>
			<path class="st2" d="M218,56.1c-8.9,6.9-16,16-20.4,26.7c-0.2-0.2-0.6-0.6-1-1c0,0,0,0-0.1-0.1c-1-1.1-2-2.4-2.9-3.6
				c-6.5-9.4-7.6-21.8-3.1-32.3c1.3-3.1,3.1-5.8,5.3-8.3c-0.7,5.7,1.2,10.8,6.4,13.7c1.6,0.9,3.2,1.5,4.9,2.1l0,0
				c3.9,1,6.2,1.6,9,2.3c0.5,0.1,1.1,0.2,1.6,0.4C217.9,56.1,218,56.1,218,56.1z"/>
			
				<radialGradient id="SVGID_4_" cx="3914.3086" cy="9093.627" r="68.1901" gradientTransform="matrix(-0.9986 -5.233597e-02 5.232693e-02 -0.9986 3680.5674 9286.165)" gradientUnits="userSpaceOnUse">
				<stop  offset="0" style="stop-color:#0AF0C8"/>
				<stop  offset="0.2348" style="stop-color:#07DECE"/>
				<stop  offset="0.65" style="stop-color:#00B4DC"/>
				<stop  offset="1" style="stop-color:#004AC3"/>
			</radialGradient>
			<path class="st3" d="M246.9,0.4c-1,11.4-5.9,22.2-12.6,31.4c-6.2,8.5-14.4,15.5-23.8,20.1c-1,0.5-3.1,1.5-3.2,1.5l0,0
				c-1.7-0.6-3.4-1.3-4.9-2.1c-5.3-2.9-7.1-8-6.4-13.7c4.5-5.2,10.6-9.1,16.7-12.3c8.7-4.6,17.8-7.6,25.3-14.1
				C241,8.3,244.9,4.2,246.9,0.4z"/>
		</g>
	</g>
	<g>
		<g>
			<g>
				<path class="st4" d="M27.3,89.4c0-0.3,0.1-0.6,0.2-0.9c0.1-0.3,0.2-0.5,0.4-0.7c0.2-0.2,0.4-0.4,0.6-0.5s0.5-0.3,0.7-0.4
					c-0.6-0.6-0.9-1.3-0.9-1.9c0-0.3,0.1-0.6,0.2-0.9c0.1-0.3,0.3-0.5,0.5-0.7c0.2-0.2,0.4-0.3,0.7-0.4c0.3-0.1,0.6-0.2,0.9-0.2
					c0.3,0,0.6,0,0.9,0.2c0.3,0.1,0.5,0.2,0.7,0.4c0.2,0.2,0.3,0.4,0.4,0.6c0.1,0.2,0.1,0.5,0.1,0.7c0,0.3,0,0.6-0.1,0.8
					c-0.1,0.2-0.2,0.4-0.4,0.6c-0.2,0.2-0.3,0.4-0.6,0.5c-0.2,0.2-0.4,0.3-0.7,0.4l2,2.1c0.3-0.5,0.5-1.1,0.6-1.8l1,0.1
					c0,0.3-0.1,0.7-0.3,1.1c-0.1,0.4-0.3,0.8-0.6,1.2c0.3,0.3,0.6,0.6,0.8,0.9c0.2,0.3,0.4,0.6,0.6,0.9h-1.2
					c-0.1-0.2-0.2-0.3-0.4-0.5c-0.1-0.2-0.3-0.4-0.5-0.5c-0.3,0.3-0.7,0.6-1.2,0.8c-0.5,0.2-1,0.3-1.6,0.3c-0.5,0-1-0.1-1.4-0.2
					c-0.4-0.2-0.6-0.4-0.9-0.6c-0.2-0.2-0.4-0.5-0.5-0.8C27.4,90,27.3,89.7,27.3,89.4z M28.5,89.4c0,0.2,0,0.3,0.1,0.5
					c0.1,0.2,0.2,0.3,0.3,0.5c0.1,0.1,0.3,0.3,0.5,0.4c0.2,0.1,0.5,0.1,0.8,0.1c0.4,0,0.8-0.1,1.1-0.2c0.3-0.2,0.7-0.4,0.9-0.6
					l-2.4-2.5c-0.2,0.1-0.3,0.2-0.5,0.3c-0.2,0.1-0.3,0.2-0.4,0.4c-0.1,0.1-0.2,0.3-0.3,0.5C28.5,88.9,28.5,89.1,28.5,89.4z
					 M31.6,84.8c0-0.3-0.1-0.5-0.3-0.7c-0.2-0.2-0.4-0.3-0.8-0.3c-0.4,0-0.6,0.1-0.8,0.3c-0.2,0.2-0.3,0.5-0.3,0.8
					c0,0.5,0.3,1.1,0.9,1.6c0.2-0.1,0.4-0.2,0.5-0.3c0.2-0.1,0.3-0.2,0.4-0.4c0.1-0.1,0.2-0.3,0.3-0.5C31.5,85.2,31.6,85,31.6,84.8z
					"/>
				<path class="st4" d="M43.3,88.1c0.1,0.2,0.3,0.4,0.5,0.7c0.2,0.3,0.4,0.6,0.6,0.9c0.2,0.3,0.4,0.7,0.6,1c0.2,0.4,0.4,0.7,0.5,1
					h-1.3c-0.2-0.3-0.3-0.6-0.5-1c-0.2-0.3-0.4-0.6-0.6-0.9c-0.2-0.3-0.4-0.6-0.6-0.8c-0.2-0.3-0.4-0.5-0.5-0.7c-0.1,0-0.2,0-0.3,0
					s-0.2,0-0.3,0h-1.1v3.4h-1.2v-8.6c0.3-0.1,0.7-0.1,1.1-0.2c0.4,0,0.8,0,1.2,0c1.2,0,2.1,0.2,2.8,0.7s1,1.1,1,2.1
					c0,0.6-0.2,1.1-0.5,1.5C44.4,87.6,43.9,87.9,43.3,88.1z M41.5,84c-0.5,0-0.9,0-1.2,0v3.3h0.9c0.4,0,0.8,0,1.1-0.1
					c0.3,0,0.6-0.1,0.8-0.2c0.2-0.1,0.4-0.3,0.5-0.5c0.1-0.2,0.2-0.5,0.2-0.8c0-0.3-0.1-0.6-0.2-0.8c-0.1-0.2-0.3-0.4-0.5-0.5
					c-0.2-0.1-0.5-0.2-0.8-0.3C42.1,84.1,41.8,84,41.5,84z"/>
				<path class="st4" d="M46.5,88.5c0-0.6,0.1-1.1,0.3-1.5c0.2-0.4,0.4-0.8,0.7-1.1c0.3-0.3,0.6-0.5,1-0.6c0.4-0.1,0.7-0.2,1.1-0.2
					c0.9,0,1.5,0.3,2,0.8c0.5,0.5,0.7,1.4,0.7,2.5c0,0.1,0,0.1,0,0.2c0,0.1,0,0.2,0,0.2h-4.5c0.1,0.7,0.2,1.2,0.6,1.5
					c0.3,0.4,0.9,0.5,1.6,0.5c0.4,0,0.8,0,1-0.1c0.3-0.1,0.5-0.1,0.6-0.2l0.2,1c-0.1,0.1-0.4,0.2-0.7,0.2c-0.4,0.1-0.8,0.1-1.2,0.1
					c-0.6,0-1.1-0.1-1.5-0.3c-0.4-0.2-0.8-0.4-1-0.7c-0.3-0.3-0.5-0.7-0.6-1.1C46.6,89.4,46.5,89,46.5,88.5z M51,87.8
					c0-0.5-0.1-1-0.4-1.3c-0.3-0.3-0.6-0.5-1.1-0.5c-0.3,0-0.5,0.1-0.7,0.2c-0.2,0.1-0.4,0.2-0.5,0.4c-0.1,0.2-0.3,0.4-0.3,0.6
					c-0.1,0.2-0.1,0.4-0.2,0.7H51z"/>
				<path class="st4" d="M53.9,85.4c0.3-0.1,0.6-0.1,1.1-0.2c0.4-0.1,1-0.1,1.5-0.1c0.5,0,0.9,0.1,1.3,0.2c0.3,0.1,0.6,0.4,0.8,0.6
					c0.2,0.3,0.3,0.6,0.4,0.9c0.1,0.4,0.1,0.8,0.1,1.2v3.7H58v-3.4c0-0.4,0-0.7-0.1-1c-0.1-0.3-0.1-0.5-0.3-0.7
					c-0.1-0.2-0.3-0.3-0.5-0.4c-0.2-0.1-0.5-0.1-0.8-0.1c-0.1,0-0.3,0-0.4,0s-0.3,0-0.4,0c-0.1,0-0.2,0-0.3,0c-0.1,0-0.2,0-0.2,0
					v5.5h-1.2V85.4z"/>
				<path class="st4" d="M60.7,88.5c0-0.6,0.1-1.1,0.3-1.5c0.2-0.4,0.4-0.8,0.7-1.1c0.3-0.3,0.6-0.5,1-0.6c0.4-0.1,0.7-0.2,1.1-0.2
					c0.9,0,1.5,0.3,2,0.8c0.5,0.5,0.7,1.4,0.7,2.5c0,0.1,0,0.1,0,0.2c0,0.1,0,0.2,0,0.2h-4.5c0.1,0.7,0.2,1.2,0.6,1.5
					s0.9,0.5,1.6,0.5c0.4,0,0.8,0,1-0.1c0.3-0.1,0.5-0.1,0.6-0.2l0.2,1c-0.1,0.1-0.4,0.2-0.7,0.2s-0.8,0.1-1.2,0.1
					c-0.6,0-1.1-0.1-1.5-0.3c-0.4-0.2-0.8-0.4-1-0.7c-0.3-0.3-0.5-0.7-0.6-1.1C60.8,89.4,60.7,89,60.7,88.5z M65.2,87.8
					c0-0.5-0.1-1-0.4-1.3c-0.3-0.3-0.6-0.5-1.1-0.5c-0.3,0-0.5,0.1-0.7,0.2c-0.2,0.1-0.4,0.2-0.5,0.4c-0.1,0.2-0.3,0.4-0.3,0.6
					c-0.1,0.2-0.1,0.4-0.2,0.7H65.2z"/>
				<path class="st4" d="M73.4,91.7c-0.2-0.6-0.5-1.3-0.7-2.1c-0.3-0.8-0.5-1.6-0.7-2.4c-0.2,0.8-0.5,1.6-0.7,2.4
					c-0.3,0.8-0.5,1.5-0.7,2.1h-1c-0.4-0.9-0.8-1.8-1.1-2.9c-0.4-1.1-0.7-2.3-1-3.6h1.3c0.1,0.4,0.2,0.8,0.3,1.3
					c0.1,0.5,0.2,0.9,0.4,1.4c0.1,0.5,0.3,0.9,0.4,1.3s0.3,0.8,0.4,1.1c0.1-0.4,0.3-0.8,0.4-1.2c0.1-0.4,0.3-0.9,0.4-1.3
					c0.1-0.4,0.2-0.9,0.4-1.3c0.1-0.4,0.2-0.8,0.3-1.2h1c0.1,0.4,0.2,0.8,0.3,1.2c0.1,0.4,0.2,0.9,0.4,1.3c0.1,0.4,0.3,0.9,0.4,1.3
					c0.1,0.4,0.3,0.9,0.4,1.2c0.1-0.3,0.3-0.7,0.4-1.1c0.1-0.4,0.3-0.9,0.4-1.3s0.3-0.9,0.4-1.4c0.1-0.5,0.2-0.9,0.3-1.3h1.2
					c-0.3,1.3-0.7,2.5-1,3.6c-0.4,1.1-0.7,2.1-1.1,2.9H73.4z"/>
				<path class="st4" d="M79.9,85.1c0.5,0,0.9,0.1,1.2,0.2c0.3,0.1,0.6,0.3,0.8,0.5c0.2,0.2,0.3,0.5,0.4,0.8c0.1,0.3,0.1,0.6,0.1,1
					v4.1c-0.1,0-0.2,0-0.4,0.1c-0.2,0-0.4,0.1-0.6,0.1c-0.2,0-0.5,0-0.7,0.1c-0.3,0-0.5,0-0.8,0c-0.4,0-0.7,0-1-0.1
					c-0.3-0.1-0.6-0.2-0.8-0.4s-0.4-0.4-0.5-0.6s-0.2-0.6-0.2-1c0-0.4,0.1-0.7,0.2-0.9c0.1-0.3,0.3-0.5,0.6-0.6
					c0.3-0.2,0.5-0.3,0.9-0.4c0.3-0.1,0.7-0.1,1.1-0.1c0.1,0,0.2,0,0.4,0c0.1,0,0.2,0,0.4,0c0.1,0,0.2,0,0.3,0.1c0.1,0,0.1,0,0.2,0
					v-0.3c0-0.2,0-0.4-0.1-0.6c0-0.2-0.1-0.4-0.2-0.5c-0.1-0.1-0.3-0.3-0.4-0.4c-0.2-0.1-0.4-0.1-0.7-0.1c-0.4,0-0.7,0-1,0.1
					c-0.3,0.1-0.5,0.1-0.6,0.2l-0.1-1c0.2-0.1,0.4-0.1,0.8-0.2C79.1,85.1,79.5,85.1,79.9,85.1z M80,90.9c0.3,0,0.5,0,0.7,0
					c0.2,0,0.4,0,0.5-0.1v-1.9c-0.1,0-0.2-0.1-0.4-0.1c-0.2,0-0.4,0-0.7,0c-0.2,0-0.4,0-0.6,0c-0.2,0-0.4,0.1-0.5,0.2
					c-0.2,0.1-0.3,0.2-0.4,0.3c-0.1,0.1-0.2,0.3-0.2,0.5c0,0.4,0.1,0.7,0.4,0.9C79.2,90.8,79.5,90.9,80,90.9z"/>
				<path class="st4" d="M85.5,85.5c0.1-0.1,0.4-0.2,0.6-0.3c0.3-0.1,0.6-0.2,1-0.2c0.5,0,0.9,0.1,1.2,0.3c0.4,0.2,0.7,0.4,0.9,0.7
					c0.3,0.3,0.4,0.7,0.6,1.1c0.1,0.4,0.2,0.9,0.2,1.4c0,0.5-0.1,1-0.2,1.4c-0.2,0.4-0.4,0.8-0.7,1.1c-0.3,0.3-0.6,0.5-1,0.7
					c-0.4,0.2-0.9,0.2-1.4,0.2c-0.5,0-1,0-1.4-0.1c-0.4-0.1-0.8-0.2-1-0.2v-9.3l1.2-0.2V85.5z M85.5,90.7c0.1,0,0.3,0.1,0.5,0.1
					c0.2,0,0.5,0,0.8,0c0.6,0,1.1-0.2,1.5-0.6s0.6-1,0.6-1.8c0-0.3,0-0.6-0.1-0.9c-0.1-0.3-0.2-0.5-0.3-0.8
					c-0.2-0.2-0.3-0.4-0.6-0.5c-0.2-0.1-0.5-0.2-0.9-0.2c-0.3,0-0.6,0.1-0.9,0.2c-0.3,0.1-0.5,0.2-0.6,0.3V90.7z"/>
				<path class="st4" d="M93.7,91.9c-0.7,0-1.2-0.2-1.5-0.5c-0.3-0.3-0.5-0.7-0.5-1.4v-7.8l1.2-0.2v7.8c0,0.2,0,0.4,0.1,0.5
					c0,0.1,0.1,0.2,0.2,0.3c0.1,0.1,0.2,0.1,0.3,0.2c0.1,0,0.3,0.1,0.5,0.1L93.7,91.9z"/>
				<path class="st4" d="M94.8,88.5c0-0.6,0.1-1.1,0.3-1.5c0.2-0.4,0.4-0.8,0.7-1.1c0.3-0.3,0.6-0.5,1-0.6c0.4-0.1,0.7-0.2,1.1-0.2
					c0.9,0,1.5,0.3,2,0.8c0.5,0.5,0.7,1.4,0.7,2.5c0,0.1,0,0.1,0,0.2c0,0.1,0,0.2,0,0.2H96c0.1,0.7,0.2,1.2,0.6,1.5
					c0.3,0.4,0.9,0.5,1.6,0.5c0.4,0,0.8,0,1-0.1c0.3-0.1,0.5-0.1,0.6-0.2l0.2,1c-0.1,0.1-0.4,0.2-0.7,0.2c-0.4,0.1-0.8,0.1-1.2,0.1
					c-0.6,0-1.1-0.1-1.5-0.3c-0.4-0.2-0.8-0.4-1-0.7c-0.3-0.3-0.5-0.7-0.6-1.1C94.8,89.4,94.8,89,94.8,88.5z M99.2,87.8
					c0-0.5-0.1-1-0.4-1.3c-0.3-0.3-0.6-0.5-1.1-0.5c-0.3,0-0.5,0.1-0.7,0.2c-0.2,0.1-0.4,0.2-0.5,0.4c-0.1,0.2-0.3,0.4-0.3,0.6
					c-0.1,0.2-0.1,0.4-0.2,0.7H99.2z"/>
				<path class="st4" d="M105.1,91.7v-8.7h5.3v1h-4.1v2.6h3.6v1h-3.6v3h4.4v1H105.1z"/>
				<path class="st4" d="M112.2,85.4c0.3-0.1,0.6-0.1,1.1-0.2c0.4-0.1,1-0.1,1.5-0.1c0.5,0,0.9,0.1,1.3,0.2c0.3,0.1,0.6,0.4,0.8,0.6
					c0.2,0.3,0.3,0.6,0.4,0.9c0.1,0.4,0.1,0.8,0.1,1.2v3.7h-1.2v-3.4c0-0.4,0-0.7-0.1-1c-0.1-0.3-0.1-0.5-0.3-0.7
					c-0.1-0.2-0.3-0.3-0.5-0.4c-0.2-0.1-0.5-0.1-0.8-0.1c-0.1,0-0.3,0-0.4,0s-0.3,0-0.4,0c-0.1,0-0.2,0-0.3,0c-0.1,0-0.2,0-0.2,0
					v5.5h-1.2V85.4z"/>
				<path class="st4" d="M119,88.5c0-0.6,0.1-1.1,0.3-1.5c0.2-0.4,0.4-0.8,0.7-1.1c0.3-0.3,0.6-0.5,1-0.6c0.4-0.1,0.7-0.2,1.1-0.2
					c0.9,0,1.5,0.3,2,0.8c0.5,0.5,0.7,1.4,0.7,2.5c0,0.1,0,0.1,0,0.2c0,0.1,0,0.2,0,0.2h-4.5c0.1,0.7,0.2,1.2,0.6,1.5
					s0.9,0.5,1.6,0.5c0.4,0,0.8,0,1-0.1c0.3-0.1,0.5-0.1,0.6-0.2l0.2,1c-0.1,0.1-0.4,0.2-0.7,0.2s-0.8,0.1-1.2,0.1
					c-0.6,0-1.1-0.1-1.5-0.3c-0.4-0.2-0.8-0.4-1-0.7c-0.3-0.3-0.5-0.7-0.6-1.1C119.1,89.4,119,89,119,88.5z M123.5,87.8
					c0-0.5-0.1-1-0.4-1.3c-0.3-0.3-0.6-0.5-1.1-0.5c-0.3,0-0.5,0.1-0.7,0.2c-0.2,0.1-0.4,0.2-0.5,0.4c-0.1,0.2-0.3,0.4-0.3,0.6
					c-0.1,0.2-0.1,0.4-0.2,0.7H123.5z"/>
				<path class="st4" d="M128.8,85.1c0.1,0,0.2,0,0.3,0c0.1,0,0.3,0,0.4,0.1c0.1,0,0.2,0,0.3,0.1c0.1,0,0.2,0,0.2,0.1l-0.2,1
					c-0.1,0-0.2-0.1-0.5-0.1c-0.2,0-0.5-0.1-0.8-0.1c-0.2,0-0.4,0-0.6,0.1c-0.2,0-0.4,0.1-0.4,0.1v5.5h-1.2v-6.2
					c0.3-0.1,0.6-0.2,1-0.3C127.8,85.1,128.3,85.1,128.8,85.1z"/>
				<path class="st4" d="M135.3,91.1c-0.1,0.1-0.3,0.2-0.6,0.3c-0.3,0.1-0.6,0.2-1,0.2c-0.4,0-0.8-0.1-1.1-0.2s-0.6-0.3-0.9-0.6
					c-0.3-0.3-0.5-0.6-0.6-1c-0.2-0.4-0.2-0.9-0.2-1.4c0-0.5,0.1-0.9,0.2-1.3c0.1-0.4,0.3-0.7,0.6-1c0.3-0.3,0.6-0.5,1-0.7
					c0.4-0.2,0.8-0.2,1.3-0.2c0.5,0,1,0,1.4,0.1c0.4,0.1,0.7,0.2,1,0.2v5.8c0,1-0.3,1.7-0.8,2.2c-0.5,0.5-1.3,0.7-2.4,0.7
					c-0.4,0-0.8,0-1.2-0.1c-0.4-0.1-0.7-0.1-0.9-0.2l0.2-1c0.2,0.1,0.5,0.2,0.9,0.2c0.3,0.1,0.7,0.1,1.1,0.1c0.7,0,1.2-0.1,1.5-0.4
					c0.3-0.3,0.5-0.7,0.5-1.3V91.1z M135.3,86.2c-0.1,0-0.3-0.1-0.5-0.1c-0.2,0-0.5,0-0.8,0c-0.6,0-1.1,0.2-1.4,0.6
					c-0.3,0.4-0.5,1-0.5,1.6c0,0.4,0,0.7,0.1,1c0.1,0.3,0.2,0.5,0.4,0.7s0.4,0.3,0.6,0.4c0.2,0.1,0.4,0.1,0.7,0.1
					c0.3,0,0.6,0,0.9-0.1c0.3-0.1,0.5-0.2,0.6-0.3V86.2z"/>
				<path class="st4" d="M137.7,92.9c0.1,0,0.2,0.1,0.4,0.1c0.1,0,0.3,0.1,0.4,0.1c0.5,0,0.8-0.1,1.1-0.3c0.3-0.2,0.5-0.5,0.7-1
					c-0.5-1-1-2.1-1.5-3.2c-0.5-1.1-0.8-2.3-1.1-3.4h1.3c0.1,0.4,0.2,0.8,0.3,1.2c0.1,0.4,0.3,0.9,0.4,1.3c0.2,0.5,0.3,0.9,0.5,1.4
					c0.2,0.5,0.4,0.9,0.6,1.3c0.3-0.9,0.6-1.7,0.8-2.6c0.2-0.9,0.5-1.7,0.7-2.7h1.2c-0.3,1.2-0.6,2.4-1,3.5
					c-0.4,1.1-0.8,2.2-1.2,3.2c-0.2,0.4-0.3,0.7-0.5,1c-0.2,0.3-0.4,0.5-0.6,0.7c-0.2,0.2-0.5,0.3-0.7,0.4c-0.3,0.1-0.6,0.1-0.9,0.1
					c-0.1,0-0.2,0-0.3,0c-0.1,0-0.2,0-0.3,0c-0.1,0-0.2,0-0.3-0.1c-0.1,0-0.1,0-0.2-0.1L137.7,92.9z"/>
			</g>
			<g>
				<path class="st4" d="M8.5,65.7c-0.2,0.4-0.5,0.8-0.7,1.3c-0.3,0.5-0.5,1-0.8,1.6c-0.3,0.5-0.5,1.1-0.8,1.6
					c-0.2,0.5-0.5,1-0.7,1.5c-0.2-0.5-0.4-0.9-0.7-1.5c-0.2-0.5-0.5-1.1-0.8-1.6c-0.3-0.5-0.5-1.1-0.8-1.6c-0.3-0.5-0.5-0.9-0.7-1.3
					H1.6c-0.1,0.6-0.1,1.3-0.2,2c-0.1,0.7-0.1,1.4-0.2,2.2c-0.1,0.7-0.1,1.5-0.1,2.3c0,0.8-0.1,1.5-0.1,2.3h1.2
					c0-1.2,0.1-2.3,0.2-3.5c0.1-1.1,0.1-2.2,0.2-3.2c0.1,0.1,0.2,0.3,0.3,0.6c0.1,0.3,0.3,0.6,0.4,0.9c0.2,0.3,0.3,0.7,0.5,1.1
					c0.2,0.4,0.3,0.7,0.5,1.1c0.2,0.4,0.3,0.7,0.4,1C4.9,72.7,5,73,5.1,73.2h1c0.1-0.2,0.2-0.5,0.3-0.8c0.1-0.3,0.3-0.6,0.4-1
					c0.2-0.4,0.3-0.7,0.5-1.1c0.2-0.4,0.3-0.7,0.5-1.1c0.2-0.3,0.3-0.6,0.4-0.9c0.1-0.3,0.2-0.5,0.3-0.6c0.1,1,0.2,2.1,0.2,3.2
					C9,72.1,9,73.2,9.1,74.4h1.2c-0.1-3-0.4-5.9-0.6-8.7H8.5z"/>
				<path class="st4" d="M19.9,68.6c-0.2-0.3-0.5-0.5-0.8-0.6c-0.3-0.1-0.8-0.2-1.3-0.2c-0.6,0-1.1,0-1.5,0.1
					c-0.4,0.1-0.8,0.1-1.1,0.2v6.3h1.2v-5.5c0,0,0.1,0,0.2,0c0.1,0,0.2,0,0.3,0c0.1,0,0.2,0,0.4,0c0.1,0,0.3,0,0.4,0
					c0.3,0,0.6,0,0.8,0.1c0.2,0.1,0.4,0.2,0.5,0.4c0.1,0.2,0.2,0.4,0.3,0.7c0.1,0.3,0.1,0.6,0.1,1v3.4h1.2v-3.7c0-0.4,0-0.8-0.1-1.2
					C20.3,69.2,20.1,68.8,19.9,68.6z"/>
				<path class="st4" d="M29.2,71.4c-0.2-0.2-0.4-0.3-0.6-0.4c-0.2-0.1-0.5-0.2-0.8-0.3c-0.2-0.1-0.4-0.2-0.6-0.2
					c-0.2-0.1-0.3-0.2-0.4-0.2c-0.1-0.1-0.2-0.2-0.3-0.3c-0.1-0.1-0.1-0.2-0.1-0.4c0-0.3,0.1-0.5,0.4-0.6c0.2-0.1,0.5-0.2,0.9-0.2
					c0.4,0,0.7,0,1,0.1c0.3,0.1,0.5,0.1,0.6,0.2l0.2-1c-0.1,0-0.2-0.1-0.3-0.1c-0.1,0-0.3-0.1-0.4-0.1c-0.2,0-0.3-0.1-0.5-0.1
					c-0.2,0-0.4,0-0.6,0c-0.7,0-1.3,0.2-1.7,0.5c-0.4,0.3-0.6,0.8-0.6,1.4c0,0.3,0.1,0.5,0.2,0.7c0.1,0.2,0.2,0.4,0.4,0.5
					c0.2,0.1,0.4,0.3,0.6,0.4c0.2,0.1,0.5,0.2,0.7,0.3c0.5,0.2,0.9,0.4,1.1,0.6c0.2,0.2,0.3,0.4,0.3,0.7c0,0.3-0.1,0.5-0.3,0.6
					c-0.2,0.1-0.6,0.2-1.1,0.2c-0.5,0-0.9-0.1-1.2-0.2c-0.3-0.1-0.5-0.2-0.6-0.2l-0.2,1c0.1,0,0.3,0.1,0.7,0.2
					c0.3,0.1,0.8,0.1,1.4,0.1c0.8,0,1.5-0.2,1.9-0.5c0.4-0.3,0.7-0.8,0.7-1.4c0-0.3,0-0.6-0.1-0.8C29.5,71.7,29.3,71.5,29.2,71.4z"
					/>
				<path class="st4" d="M34.3,73.4c-0.2,0.1-0.5,0.1-0.8,0.1c-0.2,0-0.4,0-0.5-0.1c-0.2,0-0.3-0.1-0.4-0.3
					c-0.1-0.1-0.2-0.3-0.2-0.5c0-0.2-0.1-0.5-0.1-0.8v-3h2.5v-1h-2.5v-2l-1.2,0.2v5.8c0,0.4,0,0.8,0.1,1.1c0.1,0.3,0.2,0.6,0.4,0.8
					c0.2,0.2,0.4,0.4,0.7,0.5c0.3,0.1,0.7,0.2,1.1,0.2c0.4,0,0.7,0,1-0.1c0.3-0.1,0.5-0.2,0.6-0.2l-0.2-1
					C34.7,73.3,34.5,73.3,34.3,73.4z"/>
				<path class="st4" d="M39.3,67.8c-0.1,0-0.3,0-0.4-0.1c-0.1,0-0.2,0-0.3,0c-0.5,0-1,0-1.4,0.1c-0.4,0.1-0.8,0.2-1,0.3v6.2h1.2
					v-5.5c0.1,0,0.2,0,0.4-0.1c0.2,0,0.4-0.1,0.6-0.1c0.3,0,0.6,0,0.8,0.1c0.2,0,0.4,0.1,0.5,0.1l0.2-1c-0.1,0-0.1,0-0.2-0.1
					C39.6,67.9,39.5,67.8,39.3,67.8z"/>
				<path class="st4" d="M44.4,70.5c-0.2,0.9-0.5,1.7-0.8,2.6c-0.2-0.4-0.4-0.9-0.6-1.3c-0.2-0.5-0.4-0.9-0.5-1.4
					c-0.2-0.5-0.3-0.9-0.4-1.3c-0.1-0.4-0.2-0.8-0.3-1.2h-1.3c0.3,1.2,0.7,2.3,1.1,3.4c0.5,1.1,0.9,2.2,1.5,3.2
					c-0.2,0.5-0.4,0.8-0.7,1c-0.3,0.2-0.6,0.3-1.1,0.3c-0.1,0-0.3,0-0.4-0.1c-0.1,0-0.3-0.1-0.4-0.1l-0.2,0.9c0,0,0.1,0,0.2,0.1
					c0.1,0,0.2,0,0.3,0.1c0.1,0,0.2,0,0.3,0c0.1,0,0.2,0,0.3,0c0.3,0,0.6,0,0.9-0.1c0.3-0.1,0.5-0.2,0.7-0.4
					c0.2-0.2,0.4-0.4,0.6-0.7c0.2-0.3,0.4-0.6,0.5-1c0.4-1,0.8-2,1.2-3.2c0.4-1.1,0.7-2.3,1-3.5h-1.2C44.9,68.8,44.7,69.7,44.4,70.5
					z"/>
				<path class="st4" d="M55.3,68.7c-0.3-0.3-0.6-0.5-1-0.7c-0.4-0.2-0.8-0.2-1.2-0.2c-0.4,0-0.9,0.1-1.2,0.2
					c-0.4,0.2-0.7,0.4-1,0.7c-0.3,0.3-0.5,0.7-0.6,1.1c-0.2,0.4-0.2,0.9-0.2,1.4c0,0.5,0.1,1,0.2,1.4c0.2,0.4,0.4,0.8,0.6,1.1
					c0.3,0.3,0.6,0.5,1,0.7c0.4,0.2,0.8,0.2,1.2,0.2c0.4,0,0.9-0.1,1.2-0.2c0.4-0.2,0.7-0.4,1-0.7c0.3-0.3,0.5-0.7,0.6-1.1
					c0.2-0.4,0.2-0.9,0.2-1.4c0-0.5-0.1-1-0.2-1.4C55.8,69.3,55.6,69,55.3,68.7z M54.5,72.9c-0.3,0.4-0.8,0.6-1.3,0.6
					c-0.6,0-1-0.2-1.3-0.6c-0.3-0.4-0.5-1-0.5-1.7c0-0.7,0.2-1.3,0.5-1.7c0.3-0.4,0.8-0.6,1.3-0.6c0.6,0,1,0.2,1.3,0.6
					c0.3,0.4,0.5,1,0.5,1.7C55,71.9,54.8,72.5,54.5,72.9z"/>
				<path class="st4" d="M59.3,66.1c0.2-0.3,0.6-0.4,1.1-0.4c0.3,0,0.5,0,0.7,0.1c0.2,0,0.3,0.1,0.4,0.1l0.2-1
					c-0.1,0-0.3-0.1-0.5-0.1c-0.2-0.1-0.5-0.1-0.9-0.1c-0.9,0-1.5,0.2-1.9,0.7c-0.4,0.5-0.6,1.1-0.6,1.9v0.6h-1v1h1v5.5H59v-5.5h2.5
					v-1h-0.8l0,0H59v-0.6C59,66.8,59.1,66.4,59.3,66.1z"/>
				<polygon class="st4" points="66.8,70.4 70.5,70.4 70.5,69.3 66.8,69.3 66.8,66.8 70.9,66.8 70.9,65.7 65.6,65.7 65.6,74.4 
					71.2,74.4 71.2,73.4 66.8,73.4 				"/>
				<path class="st4" d="M74,73.3c-0.1-0.1-0.1-0.2-0.2-0.3c0-0.1-0.1-0.3-0.1-0.5v-7.8l-1.2,0.2v7.8c0,0.6,0.2,1.1,0.5,1.4
					c0.3,0.3,0.8,0.4,1.5,0.5l0.2-1c-0.2,0-0.3-0.1-0.5-0.1C74.2,73.4,74.1,73.4,74,73.3z"/>
				<path class="st4" d="M78.7,67.7c-0.4,0-0.7,0.1-1.1,0.2c-0.4,0.1-0.7,0.4-1,0.6c-0.3,0.3-0.5,0.6-0.7,1.1
					c-0.2,0.4-0.3,0.9-0.3,1.5c0,0.5,0.1,0.9,0.2,1.4c0.1,0.4,0.3,0.8,0.6,1.1c0.3,0.3,0.6,0.5,1,0.7c0.4,0.2,0.9,0.3,1.5,0.3
					c0.5,0,0.9,0,1.2-0.1c0.4-0.1,0.6-0.2,0.7-0.2l-0.2-1c-0.1,0.1-0.4,0.1-0.6,0.2c-0.3,0.1-0.6,0.1-1,0.1c-0.7,0-1.3-0.2-1.6-0.5
					c-0.3-0.4-0.5-0.9-0.6-1.5h4.5c0-0.1,0-0.1,0-0.2c0-0.1,0-0.1,0-0.2c0-1.1-0.2-2-0.7-2.5C80.3,68,79.6,67.7,78.7,67.7z M77,70.5
					c0-0.2,0.1-0.4,0.2-0.7c0.1-0.2,0.2-0.4,0.3-0.6c0.1-0.2,0.3-0.3,0.5-0.4c0.2-0.1,0.4-0.2,0.7-0.2c0.5,0,0.8,0.2,1.1,0.5
					c0.3,0.3,0.4,0.8,0.4,1.3H77z"/>
				<path class="st4" d="M86.9,73.4c-0.3,0.1-0.5,0.1-0.8,0.1c-0.4,0-0.7-0.1-1-0.2s-0.5-0.3-0.7-0.5c-0.2-0.2-0.3-0.5-0.4-0.8
					c-0.1-0.3-0.1-0.6-0.1-1c0-0.8,0.2-1.4,0.5-1.8c0.3-0.4,0.8-0.6,1.5-0.6c0.3,0,0.5,0,0.7,0.1c0.2,0.1,0.4,0.1,0.6,0.2l0.3-1
					c-0.3-0.1-0.5-0.2-0.8-0.2c-0.3-0.1-0.6-0.1-0.9-0.1c-0.5,0-0.9,0.1-1.3,0.3c-0.4,0.2-0.7,0.4-1,0.7c-0.3,0.3-0.5,0.7-0.6,1.1
					c-0.1,0.4-0.2,0.9-0.2,1.4c0,0.5,0.1,1,0.2,1.4c0.1,0.4,0.3,0.8,0.6,1.1c0.3,0.3,0.6,0.5,1,0.7c0.4,0.2,0.9,0.3,1.4,0.3
					c0.2,0,0.3,0,0.5,0c0.2,0,0.3,0,0.5-0.1c0.2,0,0.3-0.1,0.4-0.1c0.1,0,0.2-0.1,0.3-0.1l-0.2-1C87.4,73.3,87.2,73.4,86.9,73.4z"/>
				<path class="st4" d="M92.1,73.4c-0.2,0.1-0.5,0.1-0.8,0.1c-0.2,0-0.4,0-0.5-0.1c-0.2,0-0.3-0.1-0.4-0.3
					c-0.1-0.1-0.2-0.3-0.2-0.5c0-0.2-0.1-0.5-0.1-0.8v-3h2.5v-1H90v-2l-1.2,0.2v5.8c0,0.4,0,0.8,0.1,1.1c0.1,0.3,0.2,0.6,0.4,0.8
					c0.2,0.2,0.4,0.4,0.7,0.5c0.3,0.1,0.7,0.2,1.1,0.2c0.4,0,0.7,0,1-0.1c0.3-0.1,0.5-0.2,0.6-0.2l-0.2-1
					C92.4,73.3,92.3,73.3,92.1,73.4z"/>
				<path class="st4" d="M97.1,67.8c-0.1,0-0.3,0-0.4-0.1c-0.1,0-0.2,0-0.3,0c-0.5,0-1,0-1.4,0.1c-0.4,0.1-0.8,0.2-1,0.3v6.2h1.2
					v-5.5c0.1,0,0.2,0,0.4-0.1c0.2,0,0.4-0.1,0.6-0.1c0.3,0,0.6,0,0.8,0.1c0.2,0,0.4,0.1,0.5,0.1l0.2-1c-0.1,0-0.1,0-0.2-0.1
					C97.3,67.9,97.2,67.8,97.1,67.8z"/>
				<rect x="98.8" y="67.9" class="st4" width="1.2" height="6.5"/>
				<path class="st4" d="M105.8,73.4c-0.3,0.1-0.5,0.1-0.8,0.1c-0.4,0-0.7-0.1-1-0.2s-0.5-0.3-0.7-0.5c-0.2-0.2-0.3-0.5-0.4-0.8
					c-0.1-0.3-0.1-0.6-0.1-1c0-0.8,0.2-1.4,0.5-1.8c0.3-0.4,0.8-0.6,1.5-0.6c0.3,0,0.5,0,0.7,0.1c0.2,0.1,0.4,0.1,0.6,0.2l0.3-1
					c-0.3-0.1-0.5-0.2-0.8-0.2c-0.3-0.1-0.6-0.1-0.9-0.1c-0.5,0-0.9,0.1-1.3,0.3c-0.4,0.2-0.7,0.4-1,0.7c-0.3,0.3-0.5,0.7-0.6,1.1
					c-0.1,0.4-0.2,0.9-0.2,1.4c0,0.5,0.1,1,0.2,1.4c0.1,0.4,0.3,0.8,0.6,1.1c0.3,0.3,0.6,0.5,1,0.7c0.4,0.2,0.9,0.3,1.4,0.3
					c0.2,0,0.3,0,0.5,0c0.2,0,0.3,0,0.5-0.1c0.2,0,0.3-0.1,0.4-0.1c0.1,0,0.2-0.1,0.3-0.1l-0.2-1C106.2,73.3,106,73.4,105.8,73.4z"
					/>
				<rect x="107.8" y="67.9" class="st4" width="1.2" height="6.5"/>
				<path class="st4" d="M114.1,73.4c-0.2,0.1-0.5,0.1-0.8,0.1c-0.2,0-0.4,0-0.5-0.1c-0.2,0-0.3-0.1-0.4-0.3
					c-0.1-0.1-0.2-0.3-0.2-0.5c0-0.2-0.1-0.5-0.1-0.8v-3h2.5v-1h-2.5v-2l-1.2,0.2v5.8c0,0.4,0,0.8,0.1,1.1c0.1,0.3,0.2,0.6,0.4,0.8
					c0.2,0.2,0.4,0.4,0.7,0.5c0.3,0.1,0.7,0.2,1.1,0.2c0.4,0,0.7,0,1-0.1c0.3-0.1,0.5-0.2,0.6-0.2l-0.2-1
					C114.5,73.3,114.3,73.3,114.1,73.4z"/>
				<path class="st4" d="M119.1,70.5c-0.2,0.9-0.5,1.7-0.8,2.6c-0.2-0.4-0.4-0.9-0.6-1.3c-0.2-0.5-0.4-0.9-0.5-1.4
					c-0.2-0.5-0.3-0.9-0.4-1.3c-0.1-0.4-0.2-0.8-0.3-1.2h-1.3c0.3,1.2,0.7,2.3,1.1,3.4c0.5,1.1,0.9,2.2,1.5,3.2
					c-0.2,0.5-0.4,0.8-0.7,1c-0.3,0.2-0.6,0.3-1.1,0.3c-0.1,0-0.3,0-0.4-0.1c-0.1,0-0.3-0.1-0.4-0.1l-0.2,0.9c0,0,0.1,0,0.2,0.1
					c0.1,0,0.2,0,0.3,0.1c0.1,0,0.2,0,0.3,0c0.1,0,0.2,0,0.3,0c0.3,0,0.6,0,0.9-0.1c0.3-0.1,0.5-0.2,0.7-0.4
					c0.2-0.2,0.4-0.4,0.6-0.7c0.2-0.3,0.4-0.6,0.5-1c0.4-1,0.8-2,1.2-3.2c0.4-1.1,0.7-2.3,1-3.5h-1.2
					C119.6,68.8,119.4,69.7,119.1,70.5z"/>
				<path class="st4" d="M130.9,72.6c0.3-0.4,0.4-0.8,0.6-1.2c0.1-0.4,0.2-0.8,0.3-1.1l-1-0.1c-0.1,0.6-0.3,1.2-0.6,1.8l-2-2.1
					c0.2-0.1,0.5-0.3,0.7-0.4c0.2-0.2,0.4-0.3,0.6-0.5c0.2-0.2,0.3-0.4,0.4-0.6c0.1-0.2,0.1-0.5,0.1-0.8c0-0.3,0-0.5-0.1-0.7
					c-0.1-0.2-0.2-0.4-0.4-0.6c-0.2-0.2-0.4-0.3-0.7-0.4c-0.3-0.1-0.6-0.2-0.9-0.2c-0.3,0-0.6,0-0.9,0.2c-0.3,0.1-0.5,0.2-0.7,0.4
					c-0.2,0.2-0.4,0.4-0.5,0.7c-0.1,0.3-0.2,0.6-0.2,0.9c0,0.7,0.3,1.3,0.9,1.9c-0.2,0.1-0.5,0.3-0.7,0.4c-0.2,0.2-0.4,0.3-0.6,0.5
					c-0.2,0.2-0.3,0.4-0.4,0.7c-0.1,0.3-0.2,0.5-0.2,0.9c0,0.3,0,0.5,0.1,0.8c0.1,0.3,0.2,0.5,0.5,0.8c0.2,0.2,0.5,0.4,0.9,0.6
					c0.4,0.2,0.8,0.2,1.4,0.2c0.6,0,1.1-0.1,1.6-0.3c0.5-0.2,0.8-0.5,1.2-0.8c0.2,0.2,0.3,0.4,0.5,0.5c0.1,0.2,0.3,0.3,0.4,0.5h1.2
					c-0.2-0.3-0.4-0.6-0.6-0.9C131.5,73.2,131.2,72.9,130.9,72.6z M127,66.8c0.2-0.2,0.5-0.3,0.8-0.3c0.3,0,0.6,0.1,0.8,0.3
					c0.2,0.2,0.3,0.4,0.3,0.7c0,0.2,0,0.4-0.1,0.6c-0.1,0.2-0.2,0.3-0.3,0.5c-0.1,0.1-0.3,0.3-0.4,0.4c-0.2,0.1-0.3,0.2-0.5,0.3
					c-0.6-0.5-0.9-1-0.9-1.6C126.7,67.3,126.8,67,127,66.8z M128.7,73.3c-0.3,0.2-0.7,0.2-1.1,0.2c-0.3,0-0.6,0-0.8-0.1
					c-0.2-0.1-0.4-0.2-0.5-0.4c-0.1-0.1-0.2-0.3-0.3-0.5c-0.1-0.2-0.1-0.3-0.1-0.5c0-0.3,0-0.5,0.1-0.7c0.1-0.2,0.2-0.4,0.3-0.5
					c0.1-0.1,0.3-0.3,0.4-0.4c0.2-0.1,0.3-0.2,0.5-0.3l2.4,2.5C129.3,73,129,73.2,128.7,73.3z"/>
				<path class="st4" d="M145,67.7c-0.1,0.7-0.3,1.3-0.4,1.9c-0.1,0.6-0.3,1.2-0.4,1.8c-0.1,0.6-0.3,1.1-0.4,1.5
					c-0.3-0.9-0.7-1.8-1.1-2.9c-0.4-1-0.7-2.1-1.1-3.3h-1.1c-0.3,1.1-0.7,2.2-1.1,3.3c-0.4,1-0.7,2-1.1,2.9c-0.1-0.5-0.3-1-0.4-1.6
					c-0.1-0.6-0.3-1.1-0.4-1.8c-0.1-0.6-0.3-1.2-0.4-1.9c-0.1-0.7-0.2-1.3-0.4-2h-1.3c0.3,1.7,0.6,3.2,0.9,4.6
					c0.3,1.4,0.7,2.8,1.2,4h1.2c0.4-0.9,0.7-1.8,1.1-2.8c0.4-1,0.7-2,1.1-3.1c0.4,1.1,0.7,2.2,1.1,3.1c0.4,1,0.7,1.9,1.1,2.8h1.2
					c0.4-1.3,0.8-2.6,1.2-4c0.3-1.4,0.7-3,1-4.6h-1.2C145.3,66.4,145.2,67,145,67.7z"/>
				<path class="st4" d="M151.7,68.4c-0.2-0.2-0.5-0.4-0.8-0.5c-0.3-0.1-0.7-0.2-1.2-0.2c-0.4,0-0.8,0-1.1,0.1
					c-0.4,0.1-0.6,0.1-0.8,0.2l0.1,1c0.1-0.1,0.4-0.1,0.6-0.2c0.3-0.1,0.6-0.1,1-0.1c0.3,0,0.5,0,0.7,0.1c0.2,0.1,0.3,0.2,0.4,0.4
					c0.1,0.1,0.2,0.3,0.2,0.5c0,0.2,0.1,0.4,0.1,0.6v0.3c0,0-0.1,0-0.2,0c-0.1,0-0.2,0-0.3-0.1c-0.1,0-0.2,0-0.4,0
					c-0.1,0-0.2,0-0.4,0c-0.4,0-0.7,0-1.1,0.1c-0.3,0.1-0.6,0.2-0.9,0.4c-0.3,0.2-0.4,0.4-0.6,0.6c-0.1,0.3-0.2,0.6-0.2,0.9
					c0,0.4,0.1,0.7,0.2,1c0.1,0.3,0.3,0.5,0.5,0.6c0.2,0.2,0.5,0.3,0.8,0.4c0.3,0.1,0.6,0.1,1,0.1c0.3,0,0.5,0,0.8,0
					c0.3,0,0.5,0,0.7-0.1c0.2,0,0.4-0.1,0.6-0.1c0.2,0,0.3-0.1,0.4-0.1v-4.1c0-0.4,0-0.7-0.1-1C152,68.9,151.9,68.6,151.7,68.4z
					 M151.1,73.5c-0.1,0-0.3,0.1-0.5,0.1c-0.2,0-0.5,0-0.7,0c-0.5,0-0.8-0.1-1.1-0.2c-0.3-0.2-0.4-0.5-0.4-0.9
					c0-0.2,0.1-0.4,0.2-0.5c0.1-0.1,0.2-0.2,0.4-0.3c0.2-0.1,0.3-0.1,0.5-0.2c0.2,0,0.4,0,0.6,0c0.3,0,0.5,0,0.7,0
					c0.2,0,0.3,0.1,0.4,0.1V73.5z"/>
				<path class="st4" d="M157.3,73.4c-0.2,0.1-0.5,0.1-0.8,0.1c-0.2,0-0.4,0-0.5-0.1c-0.2,0-0.3-0.1-0.4-0.3
					c-0.1-0.1-0.2-0.3-0.2-0.5c0-0.2-0.1-0.5-0.1-0.8v-3h2.5v-1h-2.5v-2l-1.2,0.2v5.8c0,0.4,0,0.8,0.1,1.1c0.1,0.3,0.2,0.6,0.4,0.8
					c0.2,0.2,0.4,0.4,0.7,0.5c0.3,0.1,0.7,0.2,1.1,0.2c0.4,0,0.7,0,1-0.1c0.3-0.1,0.5-0.2,0.6-0.2l-0.2-1
					C157.7,73.3,157.5,73.3,157.3,73.4z"/>
				<path class="st4" d="M161.7,67.7c-0.4,0-0.7,0.1-1.1,0.2c-0.4,0.1-0.7,0.4-1,0.6c-0.3,0.3-0.5,0.6-0.7,1.1
					c-0.2,0.4-0.3,0.9-0.3,1.5c0,0.5,0.1,0.9,0.2,1.4c0.1,0.4,0.3,0.8,0.6,1.1c0.3,0.3,0.6,0.5,1,0.7c0.4,0.2,0.9,0.3,1.5,0.3
					c0.5,0,0.9,0,1.2-0.1c0.4-0.1,0.6-0.2,0.7-0.2l-0.2-1c-0.1,0.1-0.4,0.1-0.6,0.2c-0.3,0.1-0.6,0.1-1,0.1c-0.7,0-1.3-0.2-1.6-0.5
					c-0.3-0.4-0.5-0.9-0.6-1.5h4.5c0-0.1,0-0.1,0-0.2c0-0.1,0-0.1,0-0.2c0-1.1-0.2-2-0.7-2.5C163.2,68,162.6,67.7,161.7,67.7z
					 M159.9,70.5c0-0.2,0.1-0.4,0.2-0.7c0.1-0.2,0.2-0.4,0.3-0.6c0.1-0.2,0.3-0.3,0.5-0.4c0.2-0.1,0.4-0.2,0.7-0.2
					c0.5,0,0.8,0.2,1.1,0.5c0.3,0.3,0.4,0.8,0.4,1.3H159.9z"/>
				<path class="st4" d="M169.5,67.9c-0.1,0-0.2,0-0.3-0.1c-0.1,0-0.3,0-0.4-0.1c-0.1,0-0.2,0-0.3,0c-0.5,0-1,0-1.4,0.1
					c-0.4,0.1-0.8,0.2-1,0.3v6.2h1.2v-5.5c0.1,0,0.2,0,0.4-0.1c0.2,0,0.4-0.1,0.6-0.1c0.3,0,0.6,0,0.8,0.1c0.2,0,0.4,0.1,0.5,0.1
					l0.2-1C169.7,67.9,169.7,67.9,169.5,67.9z"/>
				<path class="st4" d="M108.4,65.2c-0.4,0-0.8,0.3-0.8,0.8c0,0.4,0.3,0.8,0.8,0.8c0.4,0,0.8-0.3,0.8-0.8
					C109.1,65.5,108.8,65.2,108.4,65.2z"/>
				<path class="st4" d="M99.4,65.2c-0.4,0-0.8,0.3-0.8,0.8c0,0.4,0.3,0.8,0.8,0.8c0.4,0,0.8-0.3,0.8-0.8
					C100.2,65.5,99.8,65.2,99.4,65.2z"/>
				<rect x="22.4" y="67.9" class="st4" width="1.2" height="6.5"/>
				<path class="st4" d="M23,65.2c-0.4,0-0.8,0.3-0.8,0.8c0,0.4,0.3,0.8,0.8,0.8c0.4,0,0.8-0.3,0.8-0.8C23.8,65.5,23.4,65.2,23,65.2
					z"/>
				<rect x="12.1" y="67.9" class="st4" width="1.2" height="6.5"/>
				<path class="st4" d="M12.6,65.2c-0.4,0-0.8,0.3-0.8,0.8c0,0.4,0.3,0.8,0.8,0.8c0.4,0,0.8-0.3,0.8-0.8
					C13.4,65.5,13.1,65.2,12.6,65.2z"/>
			</g>
		</g>
		<g>
			<path class="st4" d="M5.5,23.1c-0.5,0.1-0.8,0.3-1.2,0.6c-0.3,0.3-0.6,0.6-0.8,1.1c-0.2,0.4-0.3,0.9-0.3,1.5v1.6H1.2v1.6h2.1v0
				h4.8v-1.6H4.8v-1.6c0-0.7,0.2-1.2,0.6-1.4c0.4-0.3,0.9-0.4,1.6-0.4h1.2v-1.5H7C6.5,22.9,6,22.9,5.5,23.1z"/>
			<path class="st4" d="M36.3,26.5c0,0.4-0.1,0.8-0.3,1c-0.2,0.2-0.5,0.4-0.9,0.4h-1c-0.4,0-0.7-0.1-0.9-0.4
				c-0.2-0.3-0.3-0.6-0.3-1.1v-1.5c0-0.5-0.1-1.1-0.3-1.6c-0.2-0.5-0.5-1-0.8-1.3c-0.4-0.4-0.8-0.7-1.2-0.9c-0.5-0.2-1-0.3-1.5-0.3
				c-0.5,0-1.1,0.1-1.5,0.3c-0.5,0.2-0.9,0.5-1.2,0.9s-0.6,0.8-0.8,1.3c-0.2,0.5-0.3,1-0.3,1.6v1.5c0,0.4-0.1,0.8-0.3,1.1
				c-0.2,0.3-0.5,0.4-0.9,0.4H13.1c-0.4,0-0.6-0.1-0.9-0.3C12.1,27.3,12,27,12,26.6V15.3h-1.6v11.3c0,0.5,0.1,0.9,0.2,1.2
				c0.1,0.3,0.3,0.6,0.5,0.9c0.2,0.2,0.5,0.4,0.9,0.6c0.3,0.1,0.8,0.2,1.2,0.2h10.8c0.5,0,0.9-0.1,1.3-0.4c0.4-0.2,0.6-0.6,0.8-1.2
				h0c0.3,0.6,0.7,1,1.2,1.3c0.5,0.3,1.1,0.5,1.7,0.5c0.6,0,1.2-0.2,1.8-0.5c0.6-0.3,1-0.8,1.3-1.3h0.1c0.2,0.5,0.4,0.9,0.8,1.2
				c0.3,0.2,0.8,0.4,1.3,0.4l0,0h1c0.9,0,1.6-0.3,2-0.8c0.5-0.6,0.7-1.3,0.7-2.2V15.3h-1.6V26.5z M31.3,25.7c0,0.3-0.1,0.6-0.2,0.9
				c-0.1,0.3-0.3,0.6-0.5,0.8c-0.2,0.2-0.5,0.4-0.7,0.5c-0.3,0.1-0.6,0.2-0.9,0.2c-0.3,0-0.6-0.1-0.9-0.2c-0.3-0.1-0.5-0.3-0.7-0.5
				c-0.2-0.2-0.4-0.5-0.5-0.8c-0.1-0.3-0.2-0.6-0.2-0.9v-0.8c0-0.4,0.1-0.7,0.2-1c0.1-0.3,0.3-0.6,0.5-0.8c0.2-0.2,0.5-0.4,0.7-0.5
				c0.3-0.1,0.6-0.2,0.9-0.2c0.3,0,0.6,0.1,0.9,0.2c0.3,0.1,0.5,0.3,0.7,0.5c0.2,0.2,0.4,0.5,0.5,0.8c0.1,0.3,0.2,0.6,0.2,1V25.7z"
				/>
			<rect x="40.1" y="15.3" class="st4" width="1.6" height="14.2"/>
			<path class="st4" d="M50.5,22c-0.4-0.4-0.8-0.7-1.3-0.9c-0.5-0.2-1-0.3-1.6-0.3c-0.5,0-1.1,0.1-1.5,0.3c-0.5,0.2-0.9,0.5-1.2,0.9
				c-0.4,0.4-0.6,0.8-0.8,1.3c-0.2,0.5-0.3,1-0.3,1.6v0.8c0,0.6,0.1,1.1,0.3,1.5c0.2,0.5,0.5,0.9,0.8,1.2c0.3,0.3,0.8,0.6,1.2,0.8
				c0.5,0.2,1,0.3,1.5,0.3H50v0.6c0,0.5-0.1,0.9-0.3,1.4c-0.2,0.4-0.5,0.8-1,1.1c-0.4,0.3-0.9,0.6-1.5,0.8c-0.6,0.2-1.2,0.3-1.9,0.3
				v1.4c0.9,0,1.8-0.1,2.5-0.4c0.8-0.3,1.4-0.6,2-1.1c0.6-0.5,1-1.1,1.3-1.7c0.3-0.7,0.5-1.4,0.5-2.2v-4.8c0-0.5-0.1-1.1-0.3-1.6
				C51.1,22.8,50.9,22.4,50.5,22z M50,27.8h-2.3c-0.3,0-0.6-0.1-0.9-0.2c-0.3-0.1-0.5-0.3-0.7-0.5c-0.2-0.2-0.4-0.4-0.5-0.7
				c-0.1-0.3-0.2-0.6-0.2-0.9v-0.8c0-0.4,0.1-0.7,0.2-1c0.1-0.3,0.3-0.6,0.5-0.8c0.2-0.2,0.4-0.4,0.7-0.5c0.3-0.1,0.6-0.2,0.9-0.2
				c0.3,0,0.6,0.1,0.9,0.2c0.3,0.1,0.5,0.3,0.7,0.5c0.2,0.2,0.4,0.5,0.5,0.8c0.1,0.3,0.2,0.6,0.2,1V27.8z"/>
			<path class="st4" d="M61.8,23.1c-0.5,0.1-0.8,0.3-1.2,0.6c-0.3,0.3-0.6,0.6-0.8,1.1c-0.2,0.4-0.3,0.9-0.3,1.5v1.6h-2.1v1.6h2.1v0
				h4.8v-1.6H61v-1.6c0-0.7,0.2-1.2,0.6-1.4c0.4-0.3,0.9-0.4,1.6-0.4h1.2v-1.5h-1.2C62.7,22.9,62.2,22.9,61.8,23.1z"/>
			<path class="st4" d="M83.6,28.6c0.5-0.6,0.7-1.3,0.7-2.2v-5.2h-1.6v5.2c0,0.4-0.1,0.8-0.3,1c-0.2,0.2-0.5,0.4-0.9,0.4H69.4
				c-0.4,0-0.6-0.1-0.9-0.3c-0.2-0.2-0.3-0.5-0.3-0.9V15.3h-1.6v11.3c0,0.5,0.1,0.9,0.2,1.2c0.1,0.3,0.3,0.6,0.5,0.9
				c0.2,0.2,0.5,0.4,0.9,0.6c0.3,0.1,1.2,0.2,1.2,0.2h12.2C82.4,29.5,83.1,29.2,83.6,28.6z"/>
			<path class="st4" d="M126.8,26.5c0,0.4-0.1,0.8-0.3,1c-0.2,0.2-0.5,0.4-0.9,0.4H122v-0.1c0.2-0.2,0.4-0.5,0.5-0.7
				c0.1-0.3,0.2-0.6,0.2-0.8c0-0.7-0.1-1.3-0.4-1.8c-0.3-0.6-0.7-1.1-1.1-1.5c-0.5-0.5-1-0.9-1.6-1.3c-0.6-0.4-1.2-0.7-1.8-1
				l4.6-5.1v-0.1h-1.8l-5.2,5.7v0.3c0.7,0.2,1.4,0.5,2,0.8c0.7,0.3,1.3,0.7,1.8,1.1c0.5,0.4,1,0.9,1.3,1.4c0.3,0.5,0.5,1,0.5,1.6
				c0,0.2-0.1,0.4-0.2,0.6c-0.1,0.2-0.3,0.4-0.5,0.5c-0.2,0.1-0.5,0.3-0.9,0.3c-0.4,0.1-0.8,0.1-1.2,0.1h-7.1h0h-0.6v-3
				c0-0.7-0.1-1.4-0.4-1.9c-0.2-0.6-0.6-1.1-1-1.6c-0.4-0.5-0.9-0.8-1.5-1.1c-0.6-0.3-1.2-0.4-1.9-0.4h-6.8v1.5h1.9v0.1
				c-0.3,0.1-0.6,0.2-0.8,0.3c-0.2,0.2-0.5,0.3-0.6,0.6c-0.2,0.2-0.3,0.5-0.4,0.8c-0.1,0.3-0.2,0.6-0.2,0.8c0,0.6,0.1,1.1,0.4,1.5
				c0.3,0.4,0.6,0.8,1,1.1c0.4,0.3,0.9,0.6,1.3,0.8c0.5,0.2,0.9,0.4,1.4,0.6l0,0.1c-0.2-0.1-0.4-0.1-0.7-0.1c-0.3,0-0.6,0-1,0H89.9
				c-0.3,0-0.6-0.1-0.8-0.4c-0.2-0.2-0.3-0.6-0.3-1v-2.5h-1.6V30c0,0.5-0.1,1-0.3,1.4c-0.2,0.4-0.4,0.8-0.8,1.2
				c-0.3,0.3-0.8,0.6-1.3,0.8c-0.5,0.2-1.1,0.3-1.8,0.3v1.4c0.9,0,1.7-0.1,2.4-0.3s1.3-0.6,1.8-1c0.5-0.4,0.8-1,1.1-1.6
				c0.3-0.6,0.4-1.3,0.4-2.1c0-0.2,0-0.4,0-0.6s0-0.4-0.1-0.6h0.1c0.1,0.3,0.3,0.4,0.5,0.6c0.2,0.1,0.4,0.2,0.7,0.2H104
				c0.4,0,0.7,0,0.9-0.1c0.2-0.1,0.3-0.2,0.5-0.4c0.8,0.2,1.6,0.5,2.4,0.6c0.9,0.2,1.7,0.3,2.6,0.3l0.2-0.2v-0.2h0.6h0h14.5
				c0.9,0,1.6-0.3,2-0.8c0.5-0.6,0.7-1.3,0.7-2.2V15.3h-1.6V26.5z M104.4,27.2c-0.4-0.1-0.8-0.3-1.3-0.5c-0.5-0.2-0.9-0.4-1.3-0.7
				c-0.4-0.2-0.7-0.5-1-0.9c-0.3-0.4-0.4-0.8-0.4-1.3c0-0.2,0-0.5,0.1-0.7c0.1-0.2,0.2-0.4,0.4-0.6c0.2-0.2,0.4-0.3,0.6-0.4
				c0.2-0.1,0.5-0.2,0.7-0.2c0.3,0,0.6,0.1,0.9,0.2c0.3,0.1,0.5,0.3,0.7,0.5c0.2,0.2,0.3,0.5,0.4,0.8c0.1,0.3,0.1,0.6,0.1,0.9V27.2z
				 M109,28.2c-0.5,0-1-0.1-1.6-0.3c-0.6-0.1-1.1-0.3-1.5-0.4v-3.1c0-0.4-0.1-0.8-0.2-1.1c-0.1-0.3-0.3-0.6-0.5-0.9
				c-0.2-0.3-0.4-0.5-0.7-0.7c-0.3-0.2-0.6-0.3-0.9-0.3v-0.1h2.2c0.4,0,0.8,0.1,1.2,0.3c0.4,0.2,0.7,0.4,1,0.7
				c0.3,0.3,0.5,0.7,0.7,1.1c0.2,0.4,0.2,0.9,0.2,1.3V28.2z"/>
			<rect x="130.6" y="15.3" class="st4" width="1.6" height="14.2"/>
			<path class="st4" d="M146.8,27.3c0.2-0.5,0.3-1,0.3-1.6v-0.8c0-0.6-0.1-1.1-0.3-1.6s-0.5-0.9-0.8-1.3s-0.8-0.7-1.2-0.9
				c-0.5-0.2-1-0.3-1.5-0.3c-0.5,0-1.1,0.1-1.5,0.3c-0.5,0.2-0.9,0.5-1.2,0.9c-0.4,0.4-0.6,0.8-0.8,1.3c-0.2,0.5-0.3,1-0.3,1.6v0.8
				c0,0.6,0.1,1.1,0.3,1.6c0.2,0.5,0.5,0.9,0.8,1.3c0.4,0.4,0.8,0.7,1.2,0.9c0.5,0.2,1,0.3,1.5,0.3c0.5,0,1.1-0.1,1.5-0.3
				c0.5-0.2,0.9-0.5,1.2-0.9S146.6,27.8,146.8,27.3z M145.4,25.6c0,0.3-0.1,0.7-0.2,1c-0.1,0.3-0.3,0.6-0.5,0.8
				c-0.2,0.2-0.5,0.4-0.7,0.5c-0.3,0.1-0.6,0.2-0.9,0.2c-0.3,0-0.6-0.1-0.9-0.2c-0.3-0.1-0.5-0.3-0.7-0.5c-0.2-0.2-0.4-0.5-0.5-0.8
				c-0.1-0.3-0.2-0.6-0.2-1v-0.8c0-0.4,0.1-0.7,0.2-1c0.1-0.3,0.3-0.6,0.5-0.8c0.2-0.2,0.4-0.4,0.7-0.5c0.3-0.1,0.6-0.2,0.9-0.2
				c0.3,0,0.6,0.1,0.9,0.2c0.3,0.1,0.5,0.3,0.7,0.5c0.2,0.2,0.4,0.5,0.5,0.8c0.1,0.3,0.2,0.6,0.2,1V25.6z"/>
			<path class="st4" d="M149.8,30c0,0.5-0.1,1-0.3,1.4c-0.2,0.4-0.4,0.8-0.8,1.2c-0.3,0.3-0.8,0.6-1.3,0.8c-0.5,0.2-1.1,0.3-1.8,0.3
				v1.4c0.9,0,1.7-0.1,2.4-0.4c0.7-0.2,1.3-0.6,1.8-1c0.5-0.4,0.8-1,1.1-1.6c0.2-0.6,0.4-1.3,0.4-2.1v-6.1h-1.6V30z"/>
			<rect x="153.6" y="15.3" class="st4" width="1.6" height="14.2"/>
			<path class="st4" d="M158,30c0,0.5-0.1,1-0.3,1.4c-0.2,0.4-0.4,0.8-0.8,1.2c-0.3,0.3-0.8,0.6-1.3,0.8c-0.5,0.2-1.1,0.3-1.8,0.3
				v1.4c0.9,0,1.7-0.1,2.4-0.4c0.7-0.2,1.3-0.6,1.8-1c0.5-0.4,0.8-1,1.1-1.6c0.2-0.6,0.4-1.3,0.4-2.1v-6.1H158V30z"/>
			<path class="st4" d="M169.3,23.3c-0.2-0.5-0.5-0.9-0.8-1.3c-0.4-0.4-0.8-0.7-1.3-0.9c-0.5-0.2-1-0.3-1.6-0.3
				c-0.5,0-1.1,0.1-1.5,0.3c-0.5,0.2-0.9,0.5-1.2,0.9c-0.4,0.4-0.6,0.8-0.8,1.3c-0.2,0.5-0.3,1-0.3,1.6v0.8c0,0.6,0.1,1.1,0.3,1.5
				c0.2,0.5,0.5,0.9,0.8,1.2c0.3,0.3,0.8,0.6,1.2,0.8c0.5,0.2,1,0.3,1.5,0.3h2.3v0.6c0,0.5-0.1,0.9-0.3,1.4c-0.2,0.4-0.5,0.8-1,1.1
				c-0.4,0.3-0.9,0.6-1.5,0.8c-0.6,0.2-1.2,0.3-1.9,0.3v1.4c0.9,0,1.8-0.1,2.5-0.4c0.8-0.3,1.4-0.6,2-1.1c0.6-0.5,1-1.1,1.3-1.7
				c0.3-0.7,0.5-1.4,0.5-2.2v-4.8C169.6,24.3,169.5,23.8,169.3,23.3z M167.9,27.8h-2.3c-0.3,0-0.6-0.1-0.9-0.2
				c-0.3-0.1-0.5-0.3-0.7-0.5c-0.2-0.2-0.4-0.4-0.5-0.7c-0.1-0.3-0.2-0.6-0.2-0.9v-0.8c0-0.4,0.1-0.7,0.2-1c0.1-0.3,0.3-0.6,0.5-0.8
				c0.2-0.2,0.4-0.4,0.7-0.5c0.3-0.1,0.6-0.2,0.9-0.2c0.3,0,0.6,0.1,0.9,0.2c0.3,0.1,0.5,0.3,0.7,0.5c0.2,0.2,0.4,0.5,0.5,0.8
				c0.1,0.3,0.2,0.6,0.2,1V27.8z"/>
			<path class="st4" d="M158.8,18.1c-0.5,0-0.9,0.4-0.9,0.9c0,0.5,0.4,0.9,0.9,0.9c0.5,0,0.9-0.4,0.9-0.9
				C159.7,18.5,159.3,18.1,158.8,18.1z"/>
			<path class="st4" d="M144.2,18.9c0.5,0,0.9-0.4,0.9-0.9c0-0.5-0.4-0.9-0.9-0.9c-0.5,0-0.9,0.4-0.9,0.9
				C143.3,18.5,143.7,18.9,144.2,18.9z"/>
			<path class="st4" d="M81,31.2c-0.5,0-0.9,0.4-0.9,0.9c0,0.5,0.4,0.9,0.9,0.9c0.5,0,0.9-0.4,0.9-0.9C81.9,31.6,81.5,31.2,81,31.2z
				"/>
			<circle class="st4" cx="142.1" cy="18" r="0.9"/>
		</g>
		<g>
			<path class="st4" d="M7.9,47.1c-0.4-0.4-0.8-0.7-1.2-0.9c-0.5-0.2-1-0.3-1.5-0.3c-0.5,0-1.1,0.1-1.5,0.3
				c-0.5,0.2-0.9,0.5-1.2,0.9c-0.4,0.4-0.6,0.8-0.8,1.3c-0.2,0.5-0.3,1-0.3,1.6v0.8c0,0.6,0.1,1.1,0.3,1.6c0.2,0.5,0.5,0.9,0.8,1.3
				c0.4,0.4,0.8,0.7,1.2,0.9c0.5,0.2,1,0.3,1.5,0.3c0.5,0,1.1-0.1,1.5-0.3c0.5-0.2,0.9-0.5,1.2-0.9c0.4-0.4,0.6-0.8,0.8-1.3
				c0.2-0.5,0.3-1,0.3-1.6V50c0-0.6-0.1-1.1-0.3-1.6C8.5,47.9,8.2,47.5,7.9,47.1z M7.4,50.8c0,0.3-0.1,0.7-0.2,1
				c-0.1,0.3-0.3,0.6-0.5,0.8C6.5,52.7,6.3,52.9,6,53c-0.3,0.1-0.6,0.2-0.9,0.2c-0.3,0-0.6-0.1-0.9-0.2c-0.3-0.1-0.5-0.3-0.7-0.5
				C3.3,52.3,3.1,52,3,51.7c-0.1-0.3-0.2-0.6-0.2-1V50c0-0.4,0.1-0.7,0.2-1c0.1-0.3,0.3-0.6,0.5-0.8c0.2-0.2,0.4-0.4,0.7-0.5
				c0.3-0.1,0.6-0.2,0.9-0.2c0.3,0,0.6,0.1,0.9,0.2c0.3,0.1,0.5,0.3,0.7,0.5c0.2,0.2,0.4,0.5,0.5,0.8c0.1,0.3,0.2,0.6,0.2,1V50.8z"
				/>
			<path class="st4" d="M17.4,47.6c-0.4-0.4-0.8-0.7-1.2-0.9c-0.5-0.2-1-0.3-1.6-0.3h-2.9V48h2.9c0.3,0,0.6,0.1,0.9,0.2
				c0.3,0.1,0.5,0.3,0.7,0.5c0.2,0.2,0.4,0.5,0.5,0.8c0.1,0.3,0.2,0.6,0.2,1V53h-5.7v1.6h7.3v-4.1c0-0.6-0.1-1.1-0.3-1.6
				C18,48.4,17.7,48,17.4,47.6z"/>
			<path class="st4" d="M77.2,51.6c0,0.4-0.1,0.8-0.3,1C76.7,52.8,76.4,53,76,53c-0.4,0-0.7-0.1-0.9-0.4c-0.2-0.3-0.3-0.6-0.3-1.1
				V50c0-0.5-0.1-1.1-0.3-1.6c-0.2-0.5-0.5-1-0.8-1.3c-0.4-0.4-0.8-0.7-1.2-0.9c-0.5-0.2-1-0.3-1.5-0.3c-0.5,0-1.1,0.1-1.5,0.3
				c-0.5,0.2-0.9,0.5-1.2,0.9c-0.4,0.4-0.6,0.8-0.8,1.3c-0.2,0.5-0.3,1-0.3,1.6v1.5c0,0.4-0.1,0.8-0.3,1.1c-0.2,0.3-0.5,0.4-0.9,0.4
				c-0.6,0-5.8-0.1-6-0.3c-0.3-0.2-0.4-0.6-0.4-1.1V48h-1.6v3.6c0,0.5-0.1,0.8-0.4,1.1c-0.3,0.2-0.7,0.3-1.2,0.3H45.9
				c-0.2-0.1-0.3-0.3-0.4-0.6c-0.1-0.3-0.1-0.6-0.1-1v-1.5c0-0.6-0.1-1.2-0.2-1.7c-0.2-0.5-0.4-0.9-0.7-1.3
				c-0.3-0.4-0.7-0.6-1.1-0.8c-0.4-0.2-1-0.3-1.5-0.3c-0.8,0-1.5,0.2-2,0.5c-0.6,0.4-1.3,1.1-1.8,1.6l1,1c0.3-0.4,1-1,1.4-1.2
				c0.4-0.2,0.8-0.3,1.3-0.3c0.3,0,0.6,0.1,0.9,0.2c0.3,0.1,0.5,0.3,0.6,0.5c0.2,0.2,0.3,0.5,0.4,0.8c0.1,0.3,0.1,0.6,0.1,1v1.4
				c0,0.3,0,0.5,0,0.7c0,0.2,0.1,0.3,0.1,0.5c0,0.1,0.1,0.2,0.1,0.3c0.1,0.1,0.1,0.2,0.2,0.3l-0.1,0.1C44,53.1,43.8,53,43.6,53
				c-0.2,0-0.5,0-0.7,0H28v-2.4c0-0.6-0.1-1.1-0.3-1.6c-0.2-0.5-0.5-0.9-0.8-1.3c-0.4-0.4-0.8-0.7-1.2-0.9c-0.5-0.2-1-0.3-1.6-0.3
				h-2.9V48h2.9c0.3,0,0.6,0.1,0.9,0.2c0.3,0.1,0.5,0.3,0.7,0.5c0.2,0.2,0.4,0.5,0.5,0.8c0.1,0.3,0.2,0.6,0.2,1V53h-5.7v1.6h35.5
				c0.3,0,0.5,0,0.8,0c0.2,0,0.5-0.1,0.7-0.2c0.2-0.1,0.4-0.2,0.6-0.4c0.2-0.2,0.3-0.4,0.5-0.6h0c0.2,0.5,0.5,0.8,0.9,1
				c0.4,0.2,5.6,0.3,6.3,0.3c0.5,0,0.9-0.1,1.3-0.4c0.4-0.2,0.6-0.6,0.8-1.2h0c0.3,0.6,0.7,1,1.2,1.3c0.5,0.3,1.1,0.5,1.7,0.5
				c0.6,0,1.2-0.2,1.8-0.5c0.6-0.3,1-0.8,1.3-1.3H74c0.2,0.5,0.4,0.9,0.8,1.2c0.3,0.2,0.8,0.4,1.3,0.4l0,0c0,0,0,0,0,0h0
				c0.9,0,1.6-0.3,2-0.8c0.5-0.6,0.7-1.3,0.7-2.2V40.4h-1.6V51.6z M73.2,50.8c0,0.3-0.1,0.6-0.2,0.9c-0.1,0.3-0.3,0.6-0.5,0.8
				c-0.2,0.2-0.5,0.4-0.7,0.5c-0.3,0.1-0.6,0.2-0.9,0.2c-0.3,0-0.6-0.1-0.9-0.2c-0.3-0.1-0.5-0.3-0.7-0.5c-0.2-0.2-0.4-0.5-0.5-0.8
				c-0.1-0.3-0.2-0.6-0.2-0.9V50c0-0.4,0.1-0.7,0.2-1c0.1-0.3,0.3-0.6,0.5-0.8c0.2-0.2,0.5-0.4,0.7-0.5c0.3-0.1,0.6-0.2,0.9-0.2
				c0.3,0,0.6,0.1,0.9,0.2c0.3,0.1,0.5,0.3,0.7,0.5c0.2,0.2,0.4,0.5,0.5,0.8c0.1,0.3,0.2,0.6,0.2,1V50.8z"/>
			<rect x="81" y="40.4" class="st4" width="1.6" height="14.2"/>
			<path class="st4" d="M117.8,45.9c-0.4-0.4-0.8-0.6-1.2-0.8c-0.5-0.2-1-0.3-1.5-0.3c-0.5,0-1.1,0.1-1.5,0.3
				c-0.5,0.2-0.9,0.5-1.2,0.8c-0.3,0.3-0.6,0.7-0.8,1.1c-0.2,0.4-0.3,0.9-0.3,1.4c0,0.7,0.2,1.3,0.5,1.8c0.3,0.5,0.7,0.9,1.2,1.3
				c0.5,0.4,1,0.7,1.6,1c0.6,0.3,1.1,0.5,1.6,0.7l0,0c-0.2-0.1-0.5-0.1-0.8-0.1c-0.3,0-0.6,0-1,0H98.7c-0.4,0-0.7-0.1-0.9-0.4
				c-0.2-0.3-0.3-0.6-0.3-1.1v-5.3h-3.9c-0.5,0-1,0.1-1.5,0.3c-0.5,0.2-0.9,0.5-1.2,0.9c-0.4,0.4-0.6,0.8-0.8,1.3
				c-0.2,0.5-0.3,1-0.3,1.6v0.5c0,0.6,0.1,1.1,0.3,1.6c0.2,0.5,0.5,0.9,0.8,1.3c0.4,0.4,0.8,0.7,1.2,0.9c0.5,0.2,1,0.3,1.5,0.3
				c0.6,0,1.2-0.2,1.8-0.5c0.6-0.3,1-0.8,1.3-1.3h0c0.2,0.5,0.4,0.9,0.8,1.2c0.3,0.2,0.8,0.4,1.3,0.4h20.2v-6c0-0.5-0.1-1-0.3-1.5
				C118.4,46.7,118.1,46.2,117.8,45.9z M95.8,50.8c0,0.3-0.1,0.6-0.2,0.9c-0.1,0.3-0.3,0.6-0.5,0.8c-0.2,0.2-0.4,0.4-0.7,0.5
				c-0.3,0.1-0.6,0.2-0.9,0.2s-0.6-0.1-0.9-0.2c-0.3-0.1-0.5-0.3-0.7-0.5c-0.2-0.2-0.4-0.5-0.5-0.8c-0.1-0.3-0.2-0.6-0.2-0.9v-0.5
				c0-0.3,0.1-0.7,0.2-1c0.1-0.3,0.3-0.6,0.5-0.8c0.2-0.2,0.4-0.4,0.7-0.5c0.3-0.1,0.6-0.2,0.9-0.2h2.3V50.8z M117.3,52.3
				c-0.4-0.2-0.9-0.4-1.4-0.6c-0.5-0.2-1-0.5-1.5-0.8c-0.5-0.3-0.9-0.7-1.2-1.1c-0.3-0.4-0.5-0.9-0.5-1.4c0-0.3,0.1-0.5,0.2-0.8
				c0.1-0.2,0.3-0.5,0.5-0.7c0.2-0.2,0.5-0.3,0.7-0.5c0.3-0.1,0.6-0.2,0.9-0.2c0.3,0,0.6,0.1,0.9,0.2c0.3,0.1,0.5,0.3,0.7,0.5
				c0.2,0.2,0.4,0.5,0.5,0.7c0.1,0.3,0.2,0.6,0.2,0.9V52.3z"/>
			<path class="st4" d="M154.2,51.6c0,0.4-0.1,0.8-0.3,1c-0.2,0.2-0.5,0.4-0.9,0.4h-5.7v-2.3c0-0.8-0.1-1.6-0.3-2.2
				c-0.2-0.6-0.5-1.1-0.9-1.5c-0.4-0.4-0.8-0.7-1.3-0.9c-0.5-0.2-1-0.3-1.6-0.3c-0.6,0-1.2,0.1-1.7,0.3c-0.5,0.2-1,0.5-1.5,0.8
				c-0.5,0.3-0.9,0.7-1.3,1.2c-0.4,0.5-0.8,1-1.3,1.5l0,0c0.2-0.4,0.3-1.1,0.3-2.1v-5.1h-1.6V53h-12.2c-0.4,0-0.6-0.1-0.9-0.3
				c-0.2-0.2-0.3-0.5-0.3-0.9V40.4h-1.6v11.3c0,0.5,0.1,0.9,0.2,1.2c0.1,0.3,0.3,0.6,0.5,0.9c0.2,0.2,0.5,0.4,0.9,0.6
				c0.3,0.1,0.8,0.2,1.2,0.2h0H153c0.9,0,1.6-0.3,2-0.8c0.5-0.6,0.7-1.3,0.7-2.2V40.4h-1.6V51.6z M145.7,53h-8v-1.6
				c0.4-0.5,0.7-1,1.1-1.4c0.4-0.5,0.8-0.9,1.2-1.3c0.4-0.4,0.9-0.7,1.4-0.9c0.5-0.2,1-0.3,1.6-0.3c0.4,0,0.7,0.1,1,0.2
				c0.3,0.1,0.6,0.3,0.9,0.6c0.2,0.3,0.4,0.6,0.6,1c0.1,0.4,0.2,0.9,0.2,1.5V53z"/>
			<rect x="158" y="40.4" class="st4" width="1.6" height="14.2"/>
			<path class="st4" d="M169.3,48.4c-0.2-0.5-0.5-0.9-0.8-1.3c-0.4-0.4-0.8-0.7-1.3-0.9c-0.5-0.2-1-0.3-1.6-0.3
				c-0.5,0-1.1,0.1-1.5,0.3c-0.5,0.2-0.9,0.5-1.2,0.9c-0.4,0.4-0.6,0.8-0.8,1.3c-0.2,0.5-0.3,1-0.3,1.6v0.8c0,0.6,0.1,1.1,0.3,1.5
				c0.2,0.5,0.5,0.9,0.8,1.2c0.3,0.3,0.8,0.6,1.2,0.8c0.5,0.2,1,0.3,1.5,0.3h2.3v0.6c0,0.5-0.1,0.9-0.3,1.4c-0.2,0.4-0.5,0.8-1,1.1
				c-0.4,0.3-0.9,0.6-1.5,0.8c-0.6,0.2-1.2,0.3-1.9,0.3v1.4c0.9,0,1.8-0.1,2.5-0.4c0.8-0.3,1.4-0.6,2-1.1c0.6-0.5,1-1.1,1.3-1.7
				c0.3-0.7,0.5-1.4,0.5-2.2V50C169.6,49.5,169.5,48.9,169.3,48.4z M167.9,53h-2.3c-0.3,0-0.6-0.1-0.9-0.2c-0.3-0.1-0.5-0.3-0.7-0.5
				c-0.2-0.2-0.4-0.4-0.5-0.7c-0.1-0.3-0.2-0.6-0.2-0.9V50c0-0.4,0.1-0.7,0.2-1c0.1-0.3,0.3-0.6,0.5-0.8c0.2-0.2,0.4-0.4,0.7-0.5
				c0.3-0.1,0.6-0.2,0.9-0.2c0.3,0,0.6,0.1,0.9,0.2c0.3,0.1,0.5,0.3,0.7,0.5c0.2,0.2,0.4,0.5,0.5,0.8c0.1,0.3,0.2,0.6,0.2,1V53z"/>
			<path class="st4" d="M6.2,44c0.5,0,0.9-0.4,0.9-0.9c0-0.5-0.4-0.9-0.9-0.9c-0.5,0-0.9,0.4-0.9,0.9C5.2,43.6,5.7,44,6.2,44z"/>
			<path class="st4" d="M4.1,44C4.6,44,5,43.6,5,43.1c0-0.5-0.4-0.9-0.9-0.9s-0.9,0.4-0.9,0.9C3.1,43.6,3.5,44,4.1,44z"/>
			<path class="st4" d="M59.7,45.1c0.5,0,0.9-0.4,0.9-0.9c0-0.5-0.4-0.9-0.9-0.9c-0.5,0-0.9,0.4-0.9,0.9
				C58.7,44.7,59.2,45.1,59.7,45.1z"/>
			<path class="st4" d="M57.5,45.1c0.5,0,0.9-0.4,0.9-0.9c0-0.5-0.4-0.9-0.9-0.9c-0.5,0-0.9,0.4-0.9,0.9
				C56.6,44.7,57,45.1,57.5,45.1z"/>
			<path class="st4" d="M95.2,44c0.5,0,0.9-0.4,0.9-0.9c0-0.5-0.4-0.9-0.9-0.9c-0.5,0-0.9,0.4-0.9,0.9C94.3,43.6,94.7,44,95.2,44z"
				/>
			<path class="st4" d="M93.1,44c0.5,0,0.9-0.4,0.9-0.9c0-0.5-0.4-0.9-0.9-0.9c-0.5,0-0.9,0.4-0.9,0.9C92.1,43.6,92.6,44,93.1,44z"
				/>
			<path class="st4" d="M116,42.7c0.5,0,0.9-0.4,0.9-0.9c0-0.5-0.4-0.9-0.9-0.9c-0.5,0-0.9,0.4-0.9,0.9
				C115.1,42.3,115.5,42.7,116,42.7z"/>
			<path class="st4" d="M113.9,42.7c0.5,0,0.9-0.4,0.9-0.9c0-0.5-0.4-0.9-0.9-0.9c-0.5,0-0.9,0.4-0.9,0.9
				C113,42.3,113.4,42.7,113.9,42.7z"/>
			<path class="st4" d="M41.5,56.3c-0.5,0-0.9,0.4-0.9,0.9s0.4,0.9,0.9,0.9c0.5,0,0.9-0.4,0.9-0.9S42.1,56.3,41.5,56.3z"/>
		</g>
	</g>
</g>
</svg>
