<svg xmlns="http://www.w3.org/2000/svg" xmlns:xlink="http://www.w3.org/1999/xlink" version="1.1" x="0px" y="0px" width="500px" height="421px" viewBox="0 0 500 421" enable-background="new 0 0 500 421" xml:space="preserve">
<g xmlns="http://www.w3.org/2000/svg" id="BACKGROUND">
</g>
<g xmlns="http://www.w3.org/2000/svg" id="OBJECTS">
</g>
<g xmlns="http://www.w3.org/2000/svg" id="DESIGNED_BY_FREEPIK">
	<g>
		<path opacity="0.15" fill="#ffbe55" d="M363.881,108.686v63.15c0,3.618-2.934,6.554-6.545,6.554h-77.947    c-3.609,0-6.535-2.936-6.535-6.554v-63.15c0-3.61,2.926-6.544,6.535-6.544h77.947    C360.947,102.142,363.881,105.075,363.881,108.686z"/>
		<g>
			<g>
				<g>
					<path fill="#0B4870" d="M360.717,287.818c0,1.259-6.615,2.278-14.775,2.278s-14.773-1.02-14.773-2.278       c0-1.257,6.824-1.607,14.984-1.607C354.311,286.211,360.717,286.562,360.717,287.818z"/>
				</g>
			</g>
			<g>
				<g>
					<path fill="#ffbe55" d="M373.293,226.791c0,0-0.008,0.127-0.016,0.36c-0.146,2.862-1.547,22.256-12.711,38.783       c-12.096,17.897-5.68,24.653-5.68,24.653h-7.053c0,0,3.109-52.442,25.154-63.642       C373.088,226.891,373.193,226.84,373.293,226.791z"/>
				</g>
			</g>
			<g>
				<g>
					<g>
						<path fill="#0B4870" d="M373.293,226.791c0,0-0.008,0.127-0.016,0.36c-1.18,1.928-8.557,14.244-15.184,29.924        c-7.418,17.529-6.006,31.505-5.99,31.648c0.014,0.091-0.059,0.183-0.158,0.189h-0.02c-0.086,0-0.164-0.064-0.178-0.155        c-0.014-0.142-1.434-14.21,6.014-31.817c6.664-15.749,14.082-28.107,15.227-29.994        C373.088,226.891,373.193,226.84,373.293,226.791z"/>
					</g>
				</g>
			</g>
			<g opacity="0.24">
				<g>
					<path d="M350.404,271.077l3.656,7.88c0,0-1.238,4.787-0.812,7.005c0.426,2.217,0.615,2.776,0.615,2.776h-2.062l-1.609-16.514       L350.404,271.077z"/>
				</g>
			</g>
			<g>
				<g>
					<path fill="#ffbe55" d="M347.623,290.588h-6.07c0,0-3.363-16.689-17.396-29.604c-0.191-0.178-0.24-0.417-0.184-0.631       c0.029-0.112,0.084-0.218,0.162-0.311c0.156-0.19,0.402-0.303,0.686-0.254c3.293,0.599,10.176,2.953,17.496,12.061       C352.498,284.518,347.623,290.588,347.623,290.588z"/>
				</g>
			</g>
			<g>
				<g>
					<path fill="#ffbe55" d="M354.061,291.437h-5.873c0,0-0.982-2.806-5.871-19.588c-4.559-15.615,5.51-40.259,6.945-43.625v-0.006       c0.105-0.254,0.162-0.381,0.162-0.381c0.051-0.029,0.105-0.058,0.156-0.07c2.387-0.736,6.543,11.877,3.107,22.291       C345.998,270.38,354.061,291.437,354.061,291.437z"/>
				</g>
			</g>
			<g>
				<g>
					<g>
						<path fill="#0B4870" d="M349.855,289.96c0.035,0.091-0.014,0.188-0.1,0.226c-0.021,0.007-0.041,0.013-0.062,0.013        c-0.072,0-0.141-0.042-0.17-0.111c-2.861-7.504-5.984-24.159-2.861-39.287c2.699-13.071,2.656-20.828,2.6-22.576v-0.006        c0.105-0.254,0.162-0.381,0.162-0.381c0.051-0.029,0.105-0.058,0.156-0.07c0.014,0.021,0.02,0.041,0.02,0.063        c0.008,0.076,0.488,8.116-2.592,23.042C343.898,265.928,347.008,282.497,349.855,289.96z"/>
					</g>
				</g>
			</g>
			<g>
				<g>
					<g>
						<path fill="#0B4870" d="M345.021,289.407c0.008,0.1-0.064,0.185-0.162,0.19c0,0-0.006,0-0.014,0        c-0.092,0-0.17-0.063-0.178-0.154c-1.602-18.146-19.938-28.667-20.695-29.091c0.029-0.112,0.084-0.218,0.162-0.311        C324.715,260.361,343.383,270.987,345.021,289.407z"/>
					</g>
				</g>
			</g>
			<g>
				<g>
					<path fill="#0E538C" d="M357.768,317.784c0,0-3.428,1.25-11.826,1.056c-6.391-0.146-12.709-1.056-12.709-1.056l-2.064-30.065       c0,0,4.268,0.959,14.984,0.959c11.352,0,14.564-0.959,14.564-0.959L357.768,317.784z"/>
				</g>
			</g>
		</g>
		<g>
			<g>
				
					<line fill="none" stroke="#FFFFFF" stroke-width="4" stroke-linecap="round" stroke-linejoin="round" stroke-miterlimit="10" x1="298.066" y1="165.678" x2="293.812" y2="161.427"/>
				
					<line fill="none" stroke="#FFFFFF" stroke-width="4" stroke-linecap="round" stroke-linejoin="round" stroke-miterlimit="10" x1="298.066" y1="161.427" x2="293.812" y2="165.678"/>
			</g>
		</g>
		<g>
			<g>
				
					<line fill="none" stroke="#FFFFFF" stroke-width="4" stroke-linecap="round" stroke-linejoin="round" stroke-miterlimit="10" x1="309.332" y1="165.678" x2="305.08" y2="161.427"/>
			</g>
		</g>
		<circle fill="#0B4870" cx="330.024" cy="134.645" r="4.942"/>
		<circle fill="#0B4870" cx="308.056" cy="152.155" r="4.942"/>
		<circle fill="#0B4870" cx="285.766" cy="134.619" r="4.943"/>
		<g>
			<g>
				<path fill="#ffbe55" d="M285.002,133.717v-0.526h1.934v0.41c-0.16,0.158-0.322,0.383-0.488,0.676      c-0.164,0.295-0.289,0.607-0.377,0.938c-0.086,0.33-0.127,0.625-0.127,0.886h-0.545c0.01-0.408,0.094-0.824,0.252-1.247      c0.16-0.424,0.371-0.803,0.637-1.137H285.002z"/>
				<path fill="#ffbe55" d="M296.543,134.51c-0.146-0.062-0.252-0.146-0.318-0.256c-0.066-0.107-0.1-0.226-0.1-0.354      c0-0.221,0.076-0.4,0.23-0.546c0.154-0.144,0.371-0.215,0.654-0.215c0.281,0,0.498,0.071,0.652,0.215      c0.156,0.146,0.232,0.325,0.232,0.546c0,0.137-0.035,0.259-0.105,0.364c-0.07,0.107-0.172,0.188-0.301,0.246      c0.164,0.065,0.289,0.161,0.373,0.286c0.086,0.127,0.129,0.272,0.129,0.437c0,0.272-0.088,0.493-0.262,0.665      c-0.172,0.17-0.404,0.255-0.691,0.255c-0.27,0-0.492-0.069-0.67-0.212c-0.211-0.166-0.316-0.394-0.316-0.684      c0-0.159,0.039-0.306,0.119-0.439C296.248,134.684,296.373,134.581,296.543,134.51z M296.607,135.203      c0,0.155,0.039,0.277,0.121,0.363c0.078,0.088,0.178,0.132,0.297,0.132c0.117,0,0.213-0.042,0.291-0.127      c0.076-0.083,0.113-0.203,0.113-0.363c0-0.137-0.039-0.249-0.115-0.332c-0.078-0.083-0.178-0.125-0.295-0.125      c-0.139,0-0.242,0.047-0.311,0.143C296.643,134.988,296.607,135.091,296.607,135.203z M296.66,133.939      c0,0.112,0.031,0.2,0.096,0.265c0.062,0.062,0.148,0.094,0.254,0.094c0.107,0,0.193-0.032,0.258-0.096s0.098-0.151,0.098-0.264      c0-0.106-0.033-0.191-0.096-0.256c-0.064-0.063-0.148-0.095-0.254-0.095c-0.107,0-0.195,0.031-0.26,0.097      C296.691,133.749,296.66,133.834,296.66,133.939z"/>
				<path fill="#ffbe55" d="M307.127,135.418l0.547-0.06c0.014,0.11,0.049,0.193,0.105,0.247s0.131,0.08,0.223,0.08      c0.117,0,0.217-0.054,0.299-0.161c0.082-0.106,0.133-0.329,0.156-0.668c-0.143,0.166-0.32,0.248-0.533,0.248      c-0.232,0-0.432-0.09-0.6-0.27c-0.168-0.179-0.252-0.412-0.252-0.698c0-0.3,0.088-0.54,0.266-0.723      c0.178-0.185,0.404-0.275,0.68-0.275c0.299,0,0.543,0.116,0.734,0.347c0.193,0.231,0.289,0.612,0.289,1.142      c0,0.54-0.1,0.928-0.301,1.167c-0.199,0.24-0.459,0.358-0.779,0.358c-0.232,0-0.418-0.062-0.561-0.184      C307.258,135.845,307.168,135.663,307.127,135.418z M308.406,134.183c0-0.183-0.041-0.322-0.125-0.424      c-0.084-0.101-0.182-0.151-0.291-0.151c-0.105,0-0.191,0.041-0.26,0.124c-0.07,0.083-0.104,0.218-0.104,0.405      c0,0.19,0.037,0.331,0.111,0.42c0.076,0.088,0.17,0.134,0.283,0.134c0.107,0,0.199-0.044,0.273-0.129      C308.369,134.476,308.406,134.351,308.406,134.183z"/>
				<path fill="#ffbe55" d="M318.473,136.101h-0.564v-2.131c-0.207,0.193-0.449,0.336-0.73,0.43v-0.514      c0.146-0.049,0.307-0.14,0.48-0.275c0.172-0.135,0.291-0.291,0.355-0.472h0.459V136.101z"/>
				<path fill="#ffbe55" d="M320.273,133.139c0.285,0,0.51,0.103,0.67,0.306c0.191,0.241,0.287,0.643,0.287,1.202      c0,0.557-0.096,0.958-0.289,1.202c-0.16,0.201-0.383,0.303-0.668,0.303c-0.287,0-0.52-0.111-0.695-0.332      s-0.264-0.614-0.264-1.18c0-0.555,0.098-0.955,0.291-1.198C319.764,133.239,319.988,133.139,320.273,133.139z M320.273,133.607      c-0.068,0-0.129,0.021-0.184,0.065c-0.053,0.044-0.096,0.122-0.125,0.234c-0.039,0.146-0.059,0.393-0.059,0.739      c0,0.345,0.018,0.583,0.053,0.713c0.035,0.129,0.08,0.215,0.133,0.258c0.053,0.044,0.113,0.065,0.182,0.065      s0.129-0.023,0.182-0.065c0.055-0.044,0.096-0.122,0.127-0.234c0.037-0.146,0.057-0.392,0.057-0.736      c0-0.347-0.018-0.585-0.053-0.713c-0.033-0.131-0.078-0.217-0.131-0.261S320.342,133.607,320.273,133.607z"/>
				<path fill="#ffbe55" d="M329.643,136.101h-0.564v-2.131c-0.207,0.193-0.449,0.336-0.73,0.43v-0.514      c0.148-0.049,0.309-0.14,0.48-0.275c0.174-0.135,0.293-0.291,0.357-0.472h0.457V136.101z"/>
				<path fill="#ffbe55" d="M331.707,136.101h-0.564v-2.131c-0.207,0.193-0.449,0.336-0.73,0.43v-0.514      c0.146-0.049,0.307-0.14,0.48-0.275c0.174-0.135,0.291-0.291,0.355-0.472h0.459V136.101z"/>
				<path fill="#ffbe55" d="M340.586,136.101h-0.564v-2.131c-0.207,0.193-0.449,0.336-0.73,0.43v-0.514      c0.146-0.049,0.307-0.14,0.48-0.275c0.174-0.135,0.291-0.291,0.355-0.472h0.459V136.101z"/>
				<path fill="#ffbe55" d="M343.34,135.574v0.526h-1.98c0.02-0.199,0.084-0.388,0.191-0.565c0.107-0.177,0.32-0.413,0.637-0.706      c0.254-0.238,0.41-0.399,0.469-0.484c0.078-0.115,0.117-0.23,0.117-0.345c0-0.125-0.035-0.223-0.102-0.292      c-0.068-0.066-0.162-0.101-0.281-0.101c-0.117,0-0.213,0.036-0.281,0.107c-0.07,0.07-0.109,0.189-0.121,0.354l-0.562-0.057      c0.033-0.312,0.139-0.534,0.314-0.669c0.178-0.136,0.398-0.204,0.664-0.204c0.291,0,0.52,0.078,0.686,0.236      c0.168,0.156,0.25,0.352,0.25,0.585c0,0.133-0.023,0.258-0.072,0.379c-0.047,0.12-0.121,0.246-0.225,0.378      c-0.068,0.086-0.191,0.212-0.371,0.376c-0.178,0.162-0.291,0.271-0.338,0.325c-0.049,0.054-0.088,0.106-0.117,0.156H343.34z"/>
				<path fill="#ffbe55" d="M351.643,136.101h-0.564v-2.131c-0.207,0.193-0.449,0.336-0.73,0.43v-0.514      c0.146-0.049,0.307-0.14,0.48-0.275c0.174-0.135,0.291-0.291,0.355-0.472h0.459V136.101z"/>
				<path fill="#ffbe55" d="M352.467,135.317l0.547-0.066c0.02,0.14,0.064,0.247,0.141,0.32c0.078,0.073,0.17,0.111,0.279,0.111      c0.117,0,0.215-0.045,0.295-0.134c0.078-0.088,0.119-0.207,0.119-0.358c0-0.142-0.039-0.254-0.115-0.337      s-0.17-0.126-0.279-0.126c-0.072,0-0.158,0.015-0.26,0.043l0.062-0.461c0.154,0.005,0.27-0.029,0.35-0.1      c0.082-0.07,0.121-0.164,0.121-0.28c0-0.099-0.029-0.179-0.088-0.237s-0.139-0.088-0.236-0.088c-0.096,0-0.178,0.032-0.248,0.1      c-0.068,0.068-0.109,0.166-0.123,0.295l-0.521-0.09c0.037-0.178,0.092-0.321,0.164-0.427c0.072-0.107,0.174-0.19,0.305-0.253      c0.133-0.06,0.279-0.091,0.441-0.091c0.277,0,0.498,0.09,0.666,0.266c0.139,0.145,0.209,0.31,0.209,0.491      c0,0.26-0.143,0.466-0.426,0.619c0.17,0.035,0.305,0.117,0.406,0.244c0.102,0.125,0.152,0.278,0.152,0.456      c0,0.259-0.096,0.48-0.285,0.663c-0.189,0.182-0.424,0.273-0.705,0.273c-0.268,0-0.488-0.078-0.664-0.231      S352.496,135.566,352.467,135.317z"/>
				<path fill="#ffbe55" d="M285.303,144.868h-0.564v-2.131c-0.207,0.193-0.449,0.337-0.73,0.43v-0.513      c0.146-0.049,0.307-0.14,0.48-0.275c0.172-0.135,0.291-0.291,0.355-0.472h0.459V144.868z"/>
				<path fill="#ffbe55" d="M287.256,144.868v-0.594h-1.207v-0.495l1.279-1.872h0.475v1.871h0.367v0.496h-0.367v0.594H287.256z       M287.256,143.778v-1.009l-0.678,1.009H287.256z"/>
				<path fill="#ffbe55" d="M296.359,144.868h-0.564v-2.131c-0.207,0.193-0.449,0.337-0.73,0.43v-0.513      c0.146-0.049,0.307-0.14,0.48-0.275c0.172-0.135,0.291-0.291,0.355-0.472h0.459V144.868z"/>
				<path fill="#ffbe55" d="M297.213,144.11l0.562-0.059c0.016,0.127,0.064,0.228,0.143,0.303c0.08,0.074,0.17,0.112,0.273,0.112      c0.119,0,0.219-0.049,0.301-0.146c0.082-0.096,0.123-0.239,0.123-0.433c0-0.181-0.041-0.316-0.123-0.407      c-0.08-0.092-0.186-0.135-0.316-0.135c-0.162,0-0.309,0.071-0.438,0.215l-0.457-0.067l0.289-1.535h1.494v0.529h-1.066      l-0.088,0.501c0.127-0.062,0.254-0.094,0.387-0.094c0.25,0,0.463,0.091,0.637,0.273c0.176,0.182,0.262,0.418,0.262,0.71      c0,0.242-0.07,0.459-0.211,0.649c-0.191,0.261-0.457,0.391-0.799,0.391c-0.271,0-0.494-0.073-0.666-0.22      S297.246,144.357,297.213,144.11z"/>
				<path fill="#ffbe55" d="M307.416,144.868h-0.566v-2.131c-0.207,0.193-0.449,0.337-0.73,0.43v-0.513      c0.148-0.049,0.309-0.14,0.482-0.275c0.172-0.135,0.291-0.291,0.355-0.472h0.459V144.868z"/>
				<path fill="#ffbe55" d="M310.176,142.642l-0.549,0.06c-0.012-0.112-0.047-0.195-0.104-0.249s-0.129-0.08-0.219-0.08      c-0.119,0-0.221,0.055-0.305,0.16c-0.082,0.107-0.133,0.33-0.154,0.671c0.141-0.166,0.316-0.249,0.525-0.249      c0.236,0,0.438,0.09,0.605,0.269c0.17,0.181,0.254,0.412,0.254,0.696c0,0.302-0.09,0.544-0.266,0.727      c-0.178,0.183-0.406,0.273-0.684,0.273c-0.297,0-0.541-0.115-0.734-0.347c-0.191-0.232-0.287-0.61-0.287-1.138      c0-0.541,0.1-0.93,0.301-1.17c0.199-0.237,0.459-0.357,0.777-0.357c0.225,0,0.41,0.063,0.557,0.188      C310.041,142.222,310.135,142.403,310.176,142.642z M308.893,143.874c0,0.184,0.043,0.325,0.129,0.427      c0.084,0.099,0.18,0.149,0.289,0.149c0.104,0,0.191-0.041,0.262-0.124c0.07-0.081,0.104-0.215,0.104-0.401      c0-0.191-0.037-0.333-0.111-0.421c-0.076-0.089-0.17-0.135-0.283-0.135c-0.107,0-0.199,0.044-0.275,0.129      C308.932,143.582,308.893,143.708,308.893,143.874z"/>
				<path fill="#ffbe55" d="M318.473,144.868h-0.566v-2.131c-0.207,0.193-0.449,0.337-0.73,0.43v-0.513      c0.148-0.049,0.309-0.14,0.482-0.275c0.172-0.135,0.291-0.291,0.355-0.472h0.459V144.868z"/>
				<path fill="#ffbe55" d="M319.316,142.485v-0.526h1.934v0.41c-0.16,0.158-0.322,0.383-0.488,0.676      c-0.164,0.295-0.289,0.607-0.375,0.938c-0.088,0.33-0.129,0.625-0.129,0.885h-0.545c0.01-0.408,0.094-0.823,0.252-1.247      c0.16-0.423,0.371-0.803,0.637-1.136H319.316z"/>
				<path fill="#ffbe55" d="M329.529,144.868h-0.566v-2.131c-0.207,0.193-0.449,0.337-0.73,0.43v-0.513      c0.148-0.049,0.309-0.14,0.482-0.275c0.172-0.135,0.291-0.291,0.355-0.472h0.459V144.868z"/>
				<path fill="#ffbe55" d="M330.857,143.278c-0.145-0.062-0.252-0.146-0.318-0.256c-0.066-0.107-0.1-0.227-0.1-0.355      c0-0.22,0.078-0.4,0.23-0.545c0.154-0.144,0.371-0.215,0.656-0.215c0.279,0,0.496,0.071,0.65,0.215      c0.156,0.145,0.234,0.325,0.234,0.545c0,0.137-0.037,0.26-0.107,0.365c-0.07,0.107-0.172,0.188-0.299,0.246      c0.162,0.064,0.287,0.16,0.373,0.286c0.084,0.127,0.127,0.272,0.127,0.437c0,0.271-0.088,0.493-0.26,0.664      c-0.174,0.171-0.406,0.256-0.693,0.256c-0.27,0-0.492-0.07-0.67-0.212c-0.211-0.166-0.316-0.394-0.316-0.684      c0-0.159,0.039-0.306,0.119-0.439C330.562,143.452,330.688,143.35,330.857,143.278z M330.922,143.972      c0,0.154,0.041,0.276,0.121,0.363c0.078,0.088,0.18,0.132,0.297,0.132s0.215-0.043,0.291-0.127      c0.076-0.083,0.115-0.204,0.115-0.363c0-0.137-0.039-0.249-0.117-0.332s-0.176-0.126-0.295-0.126      c-0.139,0-0.242,0.048-0.311,0.144C330.957,143.757,330.922,143.859,330.922,143.972z M330.975,142.708      c0,0.112,0.033,0.2,0.096,0.264c0.064,0.062,0.148,0.095,0.256,0.095c0.105,0,0.191-0.032,0.256-0.097      c0.064-0.062,0.098-0.151,0.098-0.264c0-0.105-0.033-0.19-0.096-0.256c-0.064-0.062-0.148-0.094-0.254-0.094      c-0.107,0-0.195,0.031-0.26,0.096C331.008,142.518,330.975,142.603,330.975,142.708z"/>
				<path fill="#ffbe55" d="M340.586,144.868h-0.566v-2.131c-0.207,0.193-0.449,0.337-0.73,0.43v-0.513      c0.148-0.049,0.309-0.14,0.482-0.275c0.172-0.135,0.291-0.291,0.355-0.472h0.459V144.868z"/>
				<path fill="#ffbe55" d="M341.441,144.187l0.549-0.061c0.012,0.111,0.047,0.194,0.104,0.248s0.131,0.079,0.225,0.079      c0.115,0,0.215-0.054,0.297-0.161c0.082-0.105,0.135-0.328,0.156-0.667c-0.143,0.166-0.32,0.247-0.533,0.247      c-0.232,0-0.432-0.09-0.6-0.269s-0.252-0.412-0.252-0.698c0-0.3,0.088-0.541,0.266-0.723c0.178-0.185,0.404-0.275,0.68-0.275      c0.299,0,0.545,0.115,0.734,0.347c0.193,0.231,0.289,0.612,0.289,1.142c0,0.54-0.1,0.928-0.301,1.167      c-0.199,0.239-0.459,0.358-0.779,0.358c-0.23,0-0.418-0.062-0.559-0.184C341.574,144.613,341.482,144.431,341.441,144.187z       M342.721,142.95c0-0.182-0.041-0.322-0.125-0.423s-0.18-0.151-0.291-0.151c-0.104,0-0.191,0.041-0.26,0.123      c-0.068,0.084-0.104,0.219-0.104,0.406c0,0.19,0.037,0.33,0.113,0.42c0.074,0.088,0.168,0.133,0.281,0.133      c0.107,0,0.199-0.043,0.273-0.128C342.686,143.243,342.721,143.118,342.721,142.95z"/>
				<path fill="#ffbe55" d="M352.105,144.343v0.525h-1.982c0.021-0.198,0.086-0.387,0.193-0.564s0.318-0.414,0.637-0.707      c0.254-0.237,0.41-0.398,0.469-0.483c0.076-0.115,0.115-0.231,0.115-0.345c0-0.126-0.033-0.224-0.102-0.292      c-0.066-0.066-0.16-0.101-0.279-0.101s-0.213,0.035-0.281,0.107c-0.07,0.07-0.111,0.188-0.123,0.354l-0.562-0.058      c0.033-0.311,0.139-0.534,0.316-0.669s0.398-0.203,0.664-0.203c0.291,0,0.52,0.078,0.686,0.236      c0.166,0.156,0.25,0.352,0.25,0.584c0,0.134-0.023,0.259-0.072,0.379c-0.047,0.121-0.123,0.246-0.227,0.378      c-0.068,0.087-0.191,0.212-0.369,0.376c-0.18,0.163-0.291,0.272-0.34,0.326c-0.047,0.054-0.086,0.105-0.115,0.156H352.105z"/>
				<path fill="#ffbe55" d="M353.443,141.907c0.285,0,0.508,0.103,0.668,0.306c0.193,0.241,0.289,0.642,0.289,1.202      c0,0.557-0.098,0.957-0.291,1.201c-0.158,0.202-0.381,0.303-0.666,0.303c-0.289,0-0.52-0.11-0.695-0.332      c-0.176-0.22-0.264-0.613-0.264-1.179c0-0.556,0.098-0.956,0.289-1.198C352.934,142.008,353.156,141.907,353.443,141.907z       M353.443,142.376c-0.068,0-0.131,0.021-0.184,0.064c-0.055,0.045-0.096,0.123-0.125,0.235      c-0.039,0.146-0.059,0.392-0.059,0.739c0,0.345,0.018,0.582,0.053,0.713c0.035,0.129,0.078,0.215,0.131,0.257      c0.053,0.044,0.115,0.065,0.184,0.065s0.129-0.022,0.182-0.065c0.055-0.044,0.096-0.122,0.125-0.234      c0.039-0.145,0.059-0.391,0.059-0.735c0-0.348-0.018-0.585-0.053-0.714c-0.035-0.13-0.078-0.216-0.131-0.261      C353.57,142.397,353.512,142.376,353.443,142.376z"/>
				<path fill="#ffbe55" d="M285.766,153.11v0.525h-1.982c0.021-0.199,0.086-0.387,0.193-0.564c0.107-0.177,0.32-0.413,0.637-0.708      c0.254-0.235,0.41-0.397,0.469-0.481c0.078-0.117,0.117-0.233,0.117-0.348c0-0.125-0.035-0.221-0.104-0.289      c-0.066-0.068-0.16-0.102-0.279-0.102c-0.117,0-0.213,0.035-0.281,0.106c-0.07,0.071-0.109,0.188-0.121,0.354l-0.562-0.056      c0.033-0.311,0.139-0.534,0.314-0.669c0.178-0.138,0.398-0.204,0.664-0.204c0.291,0,0.52,0.078,0.686,0.234      c0.168,0.158,0.25,0.352,0.25,0.586c0,0.133-0.023,0.26-0.072,0.38c-0.047,0.119-0.123,0.246-0.227,0.376      c-0.068,0.088-0.189,0.214-0.369,0.377c-0.178,0.164-0.291,0.273-0.34,0.325c-0.047,0.054-0.086,0.107-0.115,0.157H285.766z"/>
				<path fill="#ffbe55" d="M287.594,153.636h-0.564v-2.131c-0.207,0.194-0.451,0.336-0.73,0.429v-0.513      c0.146-0.049,0.307-0.141,0.48-0.275c0.172-0.133,0.291-0.291,0.355-0.471h0.459V153.636z"/>
				<path fill="#ffbe55" d="M296.822,153.11v0.525h-1.98c0.02-0.199,0.084-0.387,0.191-0.564c0.107-0.177,0.32-0.413,0.637-0.708      c0.254-0.235,0.41-0.397,0.469-0.481c0.078-0.117,0.117-0.233,0.117-0.348c0-0.125-0.035-0.221-0.104-0.289      c-0.066-0.068-0.16-0.102-0.279-0.102c-0.117,0-0.213,0.035-0.281,0.106c-0.07,0.071-0.109,0.188-0.121,0.354l-0.562-0.056      c0.033-0.311,0.139-0.534,0.314-0.669c0.178-0.138,0.398-0.204,0.664-0.204c0.291,0,0.52,0.078,0.686,0.234      c0.168,0.158,0.25,0.352,0.25,0.586c0,0.133-0.023,0.26-0.072,0.38c-0.047,0.119-0.123,0.246-0.225,0.376      c-0.068,0.088-0.191,0.214-0.371,0.377c-0.178,0.164-0.291,0.273-0.34,0.325c-0.047,0.054-0.086,0.107-0.115,0.157H296.822z"/>
				<path fill="#ffbe55" d="M299.113,153.11v0.525h-1.982c0.021-0.199,0.086-0.387,0.193-0.564c0.107-0.177,0.32-0.413,0.637-0.708      c0.254-0.235,0.41-0.397,0.469-0.481c0.078-0.117,0.117-0.233,0.117-0.348c0-0.125-0.035-0.221-0.104-0.289      c-0.066-0.068-0.16-0.102-0.279-0.102c-0.117,0-0.213,0.035-0.281,0.106c-0.07,0.071-0.109,0.188-0.121,0.354l-0.562-0.056      c0.033-0.311,0.139-0.534,0.314-0.669c0.178-0.138,0.398-0.204,0.664-0.204c0.291,0,0.52,0.078,0.686,0.234      c0.168,0.158,0.25,0.352,0.25,0.586c0,0.133-0.023,0.26-0.072,0.38c-0.047,0.119-0.123,0.246-0.227,0.376      c-0.068,0.088-0.189,0.214-0.369,0.377c-0.178,0.164-0.291,0.273-0.34,0.325c-0.047,0.054-0.086,0.107-0.115,0.157H299.113z"/>
				<path fill="#ffbe55" d="M307.879,153.11v0.525h-1.982c0.021-0.199,0.086-0.387,0.193-0.564c0.107-0.177,0.318-0.413,0.635-0.708      c0.256-0.235,0.412-0.397,0.471-0.481c0.076-0.117,0.115-0.233,0.115-0.348c0-0.125-0.033-0.221-0.102-0.289      s-0.16-0.102-0.279-0.102s-0.213,0.035-0.283,0.106c-0.068,0.071-0.109,0.188-0.121,0.354l-0.562-0.056      c0.033-0.311,0.139-0.534,0.316-0.669c0.176-0.138,0.398-0.204,0.664-0.204c0.291,0,0.52,0.078,0.686,0.234      c0.166,0.158,0.25,0.352,0.25,0.586c0,0.133-0.023,0.26-0.072,0.38c-0.047,0.119-0.123,0.246-0.227,0.376      c-0.068,0.088-0.191,0.214-0.371,0.377c-0.178,0.164-0.289,0.273-0.338,0.325c-0.047,0.054-0.086,0.107-0.115,0.157H307.879z"/>
				<path fill="#ffbe55" d="M308.24,152.854l0.547-0.066c0.018,0.14,0.064,0.245,0.141,0.319s0.17,0.11,0.277,0.11      c0.117,0,0.215-0.044,0.295-0.132c0.08-0.09,0.119-0.209,0.119-0.358c0-0.142-0.037-0.256-0.113-0.339s-0.17-0.123-0.279-0.123      c-0.074,0-0.16,0.013-0.26,0.042l0.062-0.461c0.152,0.003,0.27-0.029,0.35-0.1c0.08-0.071,0.121-0.164,0.121-0.281      c0-0.1-0.029-0.178-0.09-0.237c-0.059-0.059-0.137-0.088-0.234-0.088c-0.096,0-0.18,0.033-0.248,0.101      c-0.068,0.066-0.109,0.164-0.125,0.293l-0.521-0.088c0.037-0.179,0.092-0.321,0.166-0.429c0.072-0.105,0.174-0.19,0.305-0.25      c0.131-0.062,0.277-0.092,0.439-0.092c0.277,0,0.5,0.088,0.668,0.266c0.139,0.145,0.207,0.308,0.207,0.49      c0,0.259-0.141,0.466-0.424,0.62c0.168,0.036,0.303,0.117,0.404,0.243c0.102,0.127,0.152,0.278,0.152,0.457      c0,0.259-0.094,0.479-0.283,0.661s-0.426,0.273-0.707,0.273c-0.268,0-0.486-0.076-0.664-0.229      C308.369,153.302,308.268,153.101,308.24,152.854z"/>
				<path fill="#ffbe55" d="M318.936,153.11v0.525h-1.982c0.021-0.199,0.086-0.387,0.193-0.564c0.107-0.177,0.318-0.413,0.635-0.708      c0.256-0.235,0.412-0.397,0.471-0.481c0.076-0.117,0.115-0.233,0.115-0.348c0-0.125-0.033-0.221-0.102-0.289      s-0.16-0.102-0.279-0.102s-0.213,0.035-0.283,0.106c-0.068,0.071-0.109,0.188-0.121,0.354l-0.562-0.056      c0.033-0.311,0.139-0.534,0.316-0.669c0.176-0.138,0.398-0.204,0.664-0.204c0.291,0,0.52,0.078,0.686,0.234      c0.166,0.158,0.25,0.352,0.25,0.586c0,0.133-0.023,0.26-0.072,0.38c-0.047,0.119-0.123,0.246-0.227,0.376      c-0.068,0.088-0.191,0.214-0.371,0.377c-0.178,0.164-0.289,0.273-0.338,0.325c-0.047,0.054-0.086,0.107-0.115,0.157H318.936z"/>
				<path fill="#ffbe55" d="M320.426,153.636v-0.594h-1.207v-0.494l1.279-1.873h0.475v1.871h0.365v0.496h-0.365v0.594H320.426z       M320.426,152.546v-1.008l-0.678,1.008H320.426z"/>
				<path fill="#ffbe55" d="M329.992,153.11v0.525h-1.982c0.021-0.199,0.086-0.387,0.193-0.564c0.107-0.177,0.318-0.413,0.635-0.708      c0.256-0.235,0.412-0.397,0.471-0.481c0.076-0.117,0.115-0.233,0.115-0.348c0-0.125-0.033-0.221-0.102-0.289      s-0.16-0.102-0.279-0.102s-0.213,0.035-0.283,0.106c-0.068,0.071-0.109,0.188-0.121,0.354l-0.562-0.056      c0.033-0.311,0.139-0.534,0.316-0.669c0.178-0.138,0.398-0.204,0.664-0.204c0.291,0,0.52,0.078,0.686,0.234      c0.166,0.158,0.25,0.352,0.25,0.586c0,0.133-0.023,0.26-0.072,0.38c-0.047,0.119-0.123,0.246-0.227,0.376      c-0.068,0.088-0.191,0.214-0.369,0.377c-0.18,0.164-0.291,0.273-0.34,0.325c-0.047,0.054-0.086,0.107-0.115,0.157H329.992z"/>
				<path fill="#ffbe55" d="M330.381,152.878l0.564-0.059c0.016,0.127,0.062,0.229,0.143,0.303c0.078,0.073,0.17,0.111,0.273,0.111      c0.117,0,0.219-0.048,0.299-0.144c0.082-0.097,0.123-0.241,0.123-0.433c0-0.183-0.041-0.318-0.121-0.409      c-0.082-0.09-0.188-0.136-0.316-0.136c-0.162,0-0.309,0.072-0.438,0.215l-0.459-0.066l0.291-1.533h1.494v0.529h-1.066      l-0.088,0.499c0.125-0.062,0.254-0.094,0.387-0.094c0.25,0,0.463,0.091,0.637,0.273s0.262,0.42,0.262,0.71      c0,0.244-0.07,0.461-0.211,0.649c-0.193,0.261-0.459,0.391-0.799,0.391c-0.273,0-0.494-0.073-0.666-0.22      C330.518,153.321,330.414,153.124,330.381,152.878z"/>
				<path fill="#ffbe55" d="M341.049,153.11v0.525h-1.982c0.021-0.199,0.086-0.387,0.193-0.564c0.107-0.177,0.318-0.413,0.637-0.708      c0.254-0.235,0.41-0.397,0.469-0.481c0.076-0.117,0.115-0.233,0.115-0.348c0-0.125-0.033-0.221-0.102-0.289      c-0.066-0.068-0.16-0.102-0.279-0.102s-0.213,0.035-0.283,0.106c-0.068,0.071-0.109,0.188-0.121,0.354l-0.562-0.056      c0.033-0.311,0.139-0.534,0.316-0.669c0.178-0.138,0.398-0.204,0.664-0.204c0.291,0,0.52,0.078,0.686,0.234      c0.166,0.158,0.25,0.352,0.25,0.586c0,0.133-0.023,0.26-0.072,0.38c-0.047,0.119-0.123,0.246-0.227,0.376      c-0.068,0.088-0.191,0.214-0.369,0.377c-0.18,0.164-0.291,0.273-0.34,0.325c-0.047,0.054-0.086,0.107-0.115,0.157H341.049z"/>
				<path fill="#ffbe55" d="M343.346,151.409l-0.547,0.061c-0.014-0.112-0.049-0.197-0.105-0.249      c-0.057-0.054-0.129-0.081-0.219-0.081c-0.119,0-0.221,0.053-0.303,0.16c-0.084,0.107-0.135,0.331-0.156,0.67      c0.141-0.166,0.316-0.249,0.525-0.249c0.236,0,0.438,0.089,0.605,0.271c0.17,0.179,0.254,0.411,0.254,0.695      c0,0.301-0.09,0.543-0.266,0.726c-0.178,0.183-0.404,0.273-0.684,0.273c-0.297,0-0.541-0.115-0.734-0.347      c-0.191-0.231-0.287-0.61-0.287-1.139c0-0.538,0.102-0.93,0.301-1.167c0.199-0.239,0.459-0.358,0.777-0.358      c0.225,0,0.41,0.062,0.557,0.188S343.305,151.17,343.346,151.409z M342.064,152.642c0,0.185,0.041,0.326,0.127,0.426      c0.084,0.101,0.18,0.149,0.289,0.149c0.104,0,0.191-0.041,0.262-0.122c0.07-0.082,0.104-0.217,0.104-0.402      c0-0.192-0.037-0.332-0.111-0.422c-0.076-0.09-0.17-0.133-0.283-0.133c-0.107,0-0.199,0.042-0.275,0.127      C342.102,152.351,342.064,152.476,342.064,152.642z"/>
				<path fill="#ffbe55" d="M352.105,153.11v0.525h-1.982c0.021-0.199,0.086-0.387,0.193-0.564c0.107-0.177,0.318-0.413,0.637-0.708      c0.254-0.235,0.41-0.397,0.469-0.481c0.076-0.117,0.115-0.233,0.115-0.348c0-0.125-0.033-0.221-0.102-0.289      c-0.066-0.068-0.16-0.102-0.279-0.102s-0.213,0.035-0.281,0.106c-0.07,0.071-0.111,0.188-0.123,0.354l-0.562-0.056      c0.033-0.311,0.139-0.534,0.316-0.669c0.178-0.138,0.398-0.204,0.664-0.204c0.291,0,0.52,0.078,0.686,0.234      c0.166,0.158,0.25,0.352,0.25,0.586c0,0.133-0.023,0.26-0.072,0.38c-0.047,0.119-0.123,0.246-0.227,0.376      c-0.068,0.088-0.191,0.214-0.369,0.377c-0.18,0.164-0.291,0.273-0.34,0.325c-0.047,0.054-0.086,0.107-0.115,0.157H352.105z"/>
				<path fill="#ffbe55" d="M352.486,151.251v-0.523h1.934v0.41c-0.16,0.156-0.322,0.383-0.486,0.676      c-0.166,0.293-0.291,0.605-0.377,0.936c-0.088,0.331-0.129,0.626-0.129,0.887h-0.545c0.01-0.407,0.094-0.822,0.252-1.248      c0.16-0.423,0.373-0.803,0.637-1.137H352.486z"/>
				<path fill="#ffbe55" d="M284.621,161.879v0.524h-1.982c0.021-0.198,0.086-0.386,0.193-0.563c0.107-0.177,0.32-0.413,0.637-0.708      c0.254-0.236,0.41-0.397,0.469-0.482c0.076-0.117,0.115-0.232,0.115-0.347c0-0.125-0.033-0.222-0.102-0.29      c-0.066-0.068-0.16-0.101-0.279-0.101c-0.117,0-0.213,0.034-0.281,0.106c-0.07,0.071-0.111,0.188-0.121,0.353l-0.562-0.056      c0.033-0.311,0.137-0.533,0.314-0.669c0.178-0.137,0.398-0.203,0.664-0.203c0.291,0,0.52,0.078,0.686,0.234      c0.166,0.158,0.25,0.352,0.25,0.586c0,0.132-0.023,0.259-0.072,0.38c-0.047,0.119-0.123,0.246-0.227,0.376      c-0.068,0.088-0.191,0.213-0.369,0.376c-0.18,0.164-0.291,0.273-0.34,0.326c-0.047,0.053-0.086,0.107-0.115,0.157H284.621z"/>
				<path fill="#ffbe55" d="M285.488,160.812c-0.146-0.062-0.254-0.146-0.318-0.254c-0.068-0.109-0.102-0.227-0.102-0.354      c0-0.221,0.078-0.402,0.23-0.546c0.154-0.144,0.373-0.215,0.656-0.215c0.279,0,0.496,0.071,0.652,0.215      c0.154,0.144,0.232,0.325,0.232,0.546c0,0.137-0.035,0.257-0.107,0.364c-0.07,0.105-0.17,0.188-0.299,0.244      c0.164,0.065,0.287,0.161,0.373,0.288c0.086,0.125,0.127,0.271,0.127,0.437c0,0.272-0.086,0.493-0.26,0.663      c-0.174,0.171-0.404,0.256-0.693,0.256c-0.268,0-0.492-0.07-0.67-0.211c-0.211-0.166-0.316-0.394-0.316-0.684      c0-0.159,0.041-0.307,0.119-0.439C285.193,160.988,285.316,160.886,285.488,160.812z M285.551,161.506      c0,0.157,0.041,0.277,0.121,0.365c0.08,0.086,0.18,0.13,0.299,0.13c0.117,0,0.213-0.042,0.289-0.125      c0.076-0.085,0.115-0.205,0.115-0.363c0-0.139-0.039-0.249-0.117-0.332c-0.078-0.085-0.176-0.127-0.295-0.127      c-0.139,0-0.242,0.049-0.309,0.143C285.586,161.291,285.551,161.396,285.551,161.506z M285.605,160.243      c0,0.113,0.031,0.201,0.094,0.264c0.064,0.063,0.15,0.094,0.256,0.094s0.193-0.03,0.256-0.094      c0.064-0.064,0.098-0.153,0.098-0.266c0-0.105-0.033-0.19-0.096-0.254c-0.064-0.063-0.148-0.097-0.252-0.097      c-0.109,0-0.195,0.033-0.26,0.099C285.637,160.052,285.605,160.137,285.605,160.243z"/>
			</g>
			<g>
				<path fill="#ffbe55" d="M298.172,127.314h-0.564v-2.132c-0.207,0.194-0.449,0.338-0.73,0.43v-0.512      c0.146-0.049,0.309-0.141,0.48-0.275c0.174-0.136,0.293-0.292,0.357-0.473h0.457V127.314z"/>
				<path fill="#ffbe55" d="M309.691,126.788v0.526h-1.98c0.021-0.198,0.086-0.388,0.193-0.565c0.107-0.177,0.318-0.413,0.635-0.706      c0.256-0.238,0.412-0.399,0.469-0.483c0.078-0.116,0.117-0.231,0.117-0.346c0-0.125-0.035-0.223-0.102-0.291      c-0.068-0.067-0.162-0.102-0.281-0.102c-0.117,0-0.211,0.036-0.281,0.107c-0.07,0.07-0.109,0.189-0.121,0.354l-0.562-0.057      c0.033-0.312,0.139-0.534,0.314-0.67c0.178-0.135,0.4-0.203,0.664-0.203c0.291,0,0.52,0.078,0.686,0.236      c0.168,0.156,0.25,0.352,0.25,0.584c0,0.134-0.023,0.26-0.07,0.38s-0.123,0.246-0.227,0.378      c-0.068,0.086-0.191,0.211-0.371,0.376c-0.178,0.163-0.291,0.271-0.338,0.325c-0.047,0.055-0.086,0.106-0.115,0.156H309.691z"/>
				<path fill="#ffbe55" d="M318.82,126.531l0.547-0.066c0.018,0.14,0.064,0.247,0.141,0.32s0.168,0.11,0.277,0.11      c0.117,0,0.215-0.043,0.295-0.133c0.08-0.088,0.119-0.207,0.119-0.358c0-0.142-0.039-0.254-0.115-0.337      c-0.074-0.083-0.168-0.125-0.279-0.125c-0.072,0-0.158,0.014-0.26,0.042l0.062-0.461c0.154,0.005,0.27-0.029,0.352-0.1      c0.08-0.069,0.119-0.164,0.119-0.28c0-0.099-0.029-0.179-0.088-0.237s-0.139-0.088-0.236-0.088c-0.096,0-0.178,0.032-0.246,0.1      c-0.068,0.068-0.111,0.166-0.125,0.294l-0.521-0.089c0.037-0.178,0.092-0.321,0.164-0.427c0.072-0.107,0.176-0.19,0.307-0.252      c0.131-0.061,0.277-0.092,0.439-0.092c0.277,0,0.5,0.09,0.668,0.266c0.137,0.145,0.207,0.31,0.207,0.492      c0,0.258-0.143,0.465-0.426,0.618c0.17,0.036,0.305,0.117,0.406,0.244c0.102,0.126,0.152,0.278,0.152,0.456      c0,0.259-0.096,0.48-0.285,0.662c-0.188,0.183-0.424,0.274-0.705,0.274c-0.268,0-0.488-0.078-0.664-0.231      S318.848,126.78,318.82,126.531z"/>
				<path fill="#ffbe55" d="M331.004,127.314v-0.595h-1.205v-0.494l1.277-1.873h0.475v1.871h0.367v0.496h-0.367v0.595H331.004z       M331.004,126.224v-1.008l-0.678,1.008H331.004z"/>
				<path fill="#ffbe55" d="M340.961,126.556l0.564-0.059c0.016,0.127,0.062,0.229,0.143,0.303c0.078,0.075,0.17,0.112,0.273,0.112      c0.117,0,0.217-0.049,0.299-0.145c0.082-0.097,0.123-0.239,0.123-0.434c0-0.181-0.041-0.315-0.121-0.407      c-0.082-0.091-0.188-0.135-0.318-0.135c-0.162,0-0.307,0.072-0.436,0.215l-0.459-0.066l0.291-1.535h1.492v0.528h-1.064      l-0.09,0.502c0.127-0.063,0.256-0.095,0.387-0.095c0.252,0,0.465,0.092,0.639,0.273c0.174,0.183,0.262,0.419,0.262,0.71      c0,0.243-0.07,0.46-0.211,0.649c-0.193,0.261-0.459,0.392-0.799,0.392c-0.273,0-0.494-0.073-0.666-0.22      S340.994,126.804,340.961,126.556z"/>
				<path fill="#ffbe55" d="M353.924,125.087l-0.547,0.061c-0.012-0.112-0.047-0.195-0.104-0.249s-0.129-0.08-0.221-0.08      c-0.117,0-0.219,0.054-0.303,0.159c-0.082,0.107-0.133,0.331-0.154,0.671c0.141-0.166,0.314-0.249,0.525-0.249      c0.234,0,0.438,0.09,0.605,0.269c0.168,0.181,0.252,0.412,0.252,0.697c0,0.302-0.088,0.544-0.266,0.726      c-0.176,0.183-0.404,0.274-0.682,0.274c-0.297,0-0.541-0.116-0.734-0.347c-0.191-0.233-0.287-0.611-0.287-1.139      c0-0.541,0.1-0.93,0.299-1.169c0.201-0.237,0.459-0.358,0.779-0.358c0.225,0,0.41,0.063,0.557,0.189      C353.791,124.667,353.885,124.85,353.924,125.087z M352.643,126.319c0,0.185,0.043,0.326,0.127,0.427      c0.086,0.1,0.182,0.149,0.291,0.149c0.104,0,0.191-0.04,0.262-0.123c0.068-0.082,0.104-0.215,0.104-0.402      c0-0.19-0.037-0.332-0.113-0.42c-0.074-0.09-0.168-0.136-0.281-0.136c-0.107,0-0.199,0.044-0.275,0.129      S352.643,126.153,352.643,126.319z"/>
			</g>
			<g>
				<g>
					<path fill="#0B4870" d="M284.127,116.288l0.559-0.056c0.035,0.188,0.104,0.327,0.205,0.415       c0.104,0.088,0.242,0.132,0.418,0.132c0.186,0,0.324-0.039,0.418-0.117s0.143-0.171,0.143-0.274       c0-0.068-0.021-0.126-0.061-0.173c-0.039-0.048-0.107-0.088-0.207-0.124c-0.066-0.022-0.221-0.063-0.461-0.124       c-0.309-0.076-0.525-0.171-0.648-0.281c-0.174-0.156-0.264-0.349-0.264-0.573c0-0.145,0.043-0.281,0.125-0.407       c0.082-0.127,0.199-0.223,0.355-0.29c0.154-0.064,0.342-0.098,0.561-0.098c0.357,0,0.627,0.078,0.807,0.234       c0.182,0.156,0.277,0.367,0.285,0.629l-0.576,0.024c-0.023-0.146-0.076-0.253-0.156-0.315       c-0.082-0.064-0.203-0.097-0.365-0.097c-0.168,0-0.299,0.034-0.393,0.103c-0.061,0.044-0.092,0.103-0.092,0.178       c0,0.066,0.029,0.125,0.086,0.173c0.072,0.062,0.248,0.124,0.529,0.19c0.279,0.066,0.486,0.135,0.621,0.205       c0.133,0.07,0.238,0.168,0.314,0.29s0.113,0.273,0.113,0.454c0,0.162-0.045,0.315-0.137,0.457       c-0.09,0.144-0.219,0.25-0.383,0.318c-0.168,0.069-0.373,0.104-0.621,0.104c-0.359,0-0.637-0.083-0.83-0.249       S284.164,116.606,284.127,116.288z"/>
				</g>
				<g>
					<path fill="#0B4870" d="M350.408,116.288l0.559-0.056c0.035,0.188,0.104,0.327,0.205,0.415       c0.104,0.088,0.242,0.132,0.418,0.132c0.186,0,0.324-0.039,0.42-0.117c0.094-0.078,0.141-0.171,0.141-0.274       c0-0.068-0.021-0.126-0.061-0.173c-0.039-0.048-0.107-0.088-0.207-0.124c-0.066-0.022-0.221-0.063-0.461-0.124       c-0.309-0.076-0.523-0.171-0.648-0.281c-0.174-0.156-0.262-0.349-0.262-0.573c0-0.145,0.041-0.281,0.123-0.407       c0.082-0.127,0.201-0.223,0.355-0.29c0.154-0.064,0.342-0.098,0.561-0.098c0.357,0,0.627,0.078,0.807,0.234       c0.182,0.156,0.277,0.367,0.285,0.629l-0.574,0.024c-0.025-0.146-0.078-0.253-0.158-0.315       c-0.082-0.064-0.203-0.097-0.365-0.097c-0.166,0-0.299,0.034-0.393,0.103c-0.061,0.044-0.092,0.103-0.092,0.178       c0,0.066,0.029,0.125,0.086,0.173c0.072,0.062,0.248,0.124,0.529,0.19c0.279,0.066,0.486,0.135,0.621,0.205       s0.238,0.168,0.314,0.29s0.113,0.273,0.113,0.454c0,0.162-0.045,0.315-0.137,0.457c-0.09,0.144-0.219,0.25-0.383,0.318       c-0.166,0.069-0.373,0.104-0.621,0.104c-0.359,0-0.637-0.083-0.83-0.249S350.445,116.606,350.408,116.288z"/>
				</g>
				<g>
					<path fill="#0B4870" d="M295.258,117.214v-2.849h0.861l0.518,1.944l0.51-1.944h0.863v2.849h-0.535v-2.242l-0.564,2.242h-0.555       l-0.562-2.242v2.242H295.258z"/>
				</g>
				<g>
					<path fill="#0B4870" d="M307.35,117.214v-2.367h-0.846v-0.481h2.264v0.481h-0.844v2.367H307.35z"/>
				</g>
				<g>
					<path fill="#0B4870" d="M317.037,117.214l-0.68-2.849h0.59l0.43,1.957l0.52-1.957h0.686l0.498,1.991l0.438-1.991h0.58       l-0.691,2.849h-0.611l-0.568-2.129l-0.564,2.129H317.037z"/>
				</g>
				<g>
					<path fill="#0B4870" d="M329.703,117.214v-2.367h-0.846v-0.481h2.264v0.481h-0.844v2.367H329.703z"/>
				</g>
				<g>
					<path fill="#0B4870" d="M340.002,117.214v-2.849h1.953v0.481h-1.379v0.676h1.189v0.482h-1.189v1.209H340.002z"/>
				</g>
			</g>
		</g>
		<path opacity="0.15" fill="#ffbe55" d="M264.117,108.689v169.35c0,3.61-2.939,6.55-6.549,6.55h-124.33    c-3.611,0-6.531-2.939-6.531-6.55v-169.35c0-3.61,2.92-6.55,6.531-6.55h124.33C261.178,102.14,264.117,105.079,264.117,108.689z"/>
		<g>
			<path opacity="0.9" fill="#ffbe55" d="M168.906,130.864h59.4h20.059c0.666,0,1.191-0.532,1.191-1.191v-1.502     c0-0.666-0.525-1.191-1.191-1.191h-20.059h-59.4c-0.658,0-1.191,0.525-1.191,1.191v1.502     C167.715,130.332,168.248,130.864,168.906,130.864z"/>
			<path opacity="0.9" fill="#ffbe55" d="M248.367,134.318h-28.955h-50.506c-0.66,0-1.189,0.529-1.189,1.19v1.501     c0,0.659,0.529,1.196,1.189,1.196h50.506h28.955c0.66,0,1.191-0.537,1.191-1.196v-1.501     C249.559,134.848,249.027,134.318,248.367,134.318z"/>
			<g>
				<path opacity="0.9" fill="#ffbe55" d="M248.367,141.866h-11.721H168.91c-0.658,0-1.191,0.535-1.191,1.194v1.499      c0,0.66,0.533,1.192,1.191,1.192h67.736h11.721c0.668,0,1.193-0.532,1.193-1.192v-1.499      C249.561,142.401,249.035,141.866,248.367,141.866z"/>
				<g>
					<path opacity="0.9" fill="#ffbe55" d="M168.91,170.83h59.398h20.059c0.668,0,1.193-0.532,1.193-1.192v-1.501       c0-0.665-0.525-1.191-1.193-1.191h-20.059H168.91c-0.658,0-1.191,0.526-1.191,1.191v1.501       C167.719,170.298,168.252,170.83,168.91,170.83z"/>
					<path opacity="0.9" fill="#ffbe55" d="M248.371,174.284h-28.957H168.91c-0.66,0-1.191,0.529-1.191,1.189v1.502       c0,0.659,0.531,1.196,1.191,1.196h50.504h28.957c0.66,0,1.189-0.537,1.189-1.196v-1.502       C249.561,174.813,249.031,174.284,248.371,174.284z"/>
					<path opacity="0.9" fill="#ffbe55" d="M248.367,181.832h-11.721H168.91c-0.658,0-1.191,0.534-1.191,1.194v1.499       c0,0.659,0.533,1.192,1.191,1.192h67.736h11.721c0.668,0,1.193-0.533,1.193-1.192v-1.499       C249.561,182.366,249.035,181.832,248.367,181.832z"/>
				</g>
				<g>
					<path fill="#ffbe55" d="M151.76,129.956c3.879,0.81,6.373,4.624,5.562,8.501c-0.809,3.879-4.623,6.373-8.5,5.563       c-3.879-0.811-6.375-4.624-5.564-8.501C144.068,131.642,147.883,129.146,151.76,129.956 M152.137,128.155       c-4.879-1.02-9.66,2.11-10.68,6.988c-1.018,4.877,2.109,9.659,6.988,10.678c4.879,1.02,9.66-2.109,10.678-6.988       C160.143,133.955,157.014,129.175,152.137,128.155L152.137,128.155z"/>
					<path fill="#0B4870" d="M145.379,135.69l2.961,5.753c0.303,0.589,1.141,0.604,1.461,0.022       c1.592-2.88,5.646-9.616,11.035-14.123c0.322-0.271-0.039-0.801-0.389-0.566c-4.549,3.038-8.615,7.371-11.484,12.42       l-3.193-3.791C145.572,135.21,145.254,135.443,145.379,135.69z"/>
				</g>
				<g>
					<path fill="#ffbe55" d="M151.76,169.922c3.879,0.81,6.373,4.624,5.562,8.501c-0.809,3.879-4.623,6.373-8.5,5.563       c-3.879-0.811-6.375-4.624-5.564-8.501C144.068,171.606,147.883,169.11,151.76,169.922 M152.137,168.121       c-4.879-1.02-9.66,2.11-10.68,6.988c-1.018,4.876,2.109,9.659,6.988,10.678c4.879,1.02,9.66-2.11,10.678-6.988       C160.143,173.921,157.014,169.14,152.137,168.121L152.137,168.121z"/>
					<path fill="#0B4870" d="M145.379,175.656l2.961,5.753c0.303,0.589,1.141,0.604,1.461,0.022       c1.592-2.88,5.646-9.616,11.035-14.123c0.322-0.272-0.039-0.802-0.389-0.567c-4.549,3.039-8.615,7.371-11.484,12.421       l-3.193-3.791C145.572,175.176,145.254,175.409,145.379,175.656z"/>
				</g>
				<g>
					<g>
						<g>
							<g>
								<path fill="#ffbe55" d="M229.502,212.694v1.501c0,0.658-0.533,1.192-1.193,1.192H168.91c-0.658,0-1.191-0.534-1.191-1.192          v-1.501c0-0.668,0.533-1.191,1.191-1.191h59.398C228.969,211.503,229.502,212.026,229.502,212.694z"/>
							</g>
							<g>
								<path opacity="0.4" fill="#ffbe55" d="M249.561,212.694v1.501c0,0.658-0.525,1.192-1.193,1.192h-20.059          c0.66,0,1.193-0.534,1.193-1.192v-1.501c0-0.668-0.533-1.191-1.193-1.191h20.059          C249.035,211.503,249.561,212.026,249.561,212.694z"/>
							</g>
						</g>
						<g>
							<path fill="#ffbe55" d="M220.607,220.268v1.501c0,0.661-0.531,1.197-1.193,1.197H168.91c-0.66,0-1.191-0.536-1.191-1.197         v-1.501c0-0.659,0.531-1.19,1.191-1.19h50.504C220.076,219.077,220.607,219.608,220.607,220.268z"/>
							<path opacity="0.4" fill="#ffbe55" d="M249.561,220.268v1.501c0,0.661-0.529,1.197-1.189,1.197h-28.957         c0.662,0,1.193-0.536,1.193-1.197v-1.501c0-0.659-0.531-1.19-1.193-1.19h28.957         C249.031,219.077,249.561,219.608,249.561,220.268z"/>
						</g>
						<g>
							<path fill="#ffbe55" d="M237.838,205.512v1.501c0,0.658-0.533,1.192-1.191,1.192H168.91c-0.658,0-1.191-0.534-1.191-1.192         v-1.501c0-0.657,0.533-1.191,1.191-1.191h67.736C237.305,204.32,237.838,204.854,237.838,205.512z"/>
							<path opacity="0.4" fill="#ffbe55" d="M249.561,205.512v1.501c0,0.658-0.525,1.192-1.193,1.192h-11.721         c0.658,0,1.191-0.534,1.191-1.192v-1.501c0-0.657-0.533-1.191-1.191-1.191h11.721         C249.035,204.32,249.561,204.854,249.561,205.512z"/>
						</g>
					</g>
					<g>
						<path fill="#ffbe55" d="M151.76,206.611c3.879,0.81,6.373,4.624,5.562,8.501c-0.809,3.879-4.623,6.373-8.5,5.563        c-3.879-0.811-6.375-4.624-5.564-8.501C144.068,208.296,147.883,205.8,151.76,206.611 M152.137,204.811        c-4.879-1.02-9.66,2.11-10.68,6.988c-1.018,4.876,2.109,9.659,6.988,10.678c4.879,1.02,9.66-2.11,10.678-6.988        C160.143,210.61,157.014,205.829,152.137,204.811L152.137,204.811z"/>
					</g>
				</g>
				<g>
					<g>
						<g>
							<g>
								<path fill="#ffbe55" d="M229.502,249.739v1.501c0,0.658-0.533,1.192-1.193,1.192H168.91c-0.658,0-1.191-0.534-1.191-1.192          v-1.501c0-0.668,0.533-1.191,1.191-1.191h59.398C228.969,248.548,229.502,249.071,229.502,249.739z"/>
							</g>
							<g>
								<path fill="#ffbe55" d="M249.561,249.739v1.501c0,0.658-0.525,1.192-1.193,1.192h-20.059c0.66,0,1.193-0.534,1.193-1.192          v-1.501c0-0.668-0.533-1.191-1.193-1.191h20.059C249.035,248.548,249.561,249.071,249.561,249.739z"/>
							</g>
						</g>
						<g>
							<path fill="#ffbe55" d="M220.607,257.312v1.501c0,0.661-0.531,1.197-1.193,1.197H168.91c-0.66,0-1.191-0.536-1.191-1.197         v-1.501c0-0.659,0.531-1.19,1.191-1.19h50.504C220.076,256.122,220.607,256.653,220.607,257.312z"/>
							<path opacity="0.4" fill="#ffbe55" d="M249.561,257.312v1.501c0,0.661-0.529,1.197-1.189,1.197h-28.957         c0.662,0,1.193-0.536,1.193-1.197v-1.501c0-0.659-0.531-1.19-1.193-1.19h28.957         C249.031,256.122,249.561,256.653,249.561,257.312z"/>
						</g>
						<g>
							<path fill="#ffbe55" d="M237.838,242.557v1.501c0,0.658-0.533,1.192-1.191,1.192H168.91c-0.658,0-1.191-0.534-1.191-1.192         v-1.501c0-0.657,0.533-1.191,1.191-1.191h67.736C237.305,241.365,237.838,241.899,237.838,242.557z"/>
							<path opacity="0.4" fill="#ffbe55" d="M249.561,242.557v1.501c0,0.658-0.525,1.192-1.193,1.192h-11.721         c0.658,0,1.191-0.534,1.191-1.192v-1.501c0-0.657-0.533-1.191-1.191-1.191h11.721         C249.035,241.365,249.561,241.899,249.561,242.557z"/>
						</g>
					</g>
					<g>
						<path fill="#ffbe55" d="M151.76,243.656c3.879,0.81,6.373,4.624,5.562,8.501c-0.809,3.879-4.623,6.373-8.5,5.563        c-3.879-0.811-6.375-4.624-5.564-8.501C144.068,245.341,147.883,242.845,151.76,243.656 M152.137,241.855        c-4.879-1.02-9.66,2.11-10.68,6.988c-1.018,4.876,2.109,9.659,6.988,10.678c4.879,1.02,9.66-2.11,10.678-6.988        C160.143,247.655,157.014,242.874,152.137,241.855L152.137,241.855z"/>
					</g>
				</g>
			</g>
		</g>
		<g>
			<path fill="#F7F7F7" d="M361.248,163.753l-14.131-0.191c-0.061,4.402,4.529,7.089,4.504,9.009     c-0.029,2.133-4.672,3.377-4.748,8.884l14.131,0.192c0.074-5.505-4.531-6.876-4.504-9.01     C356.527,170.719,361.186,168.157,361.248,163.753z"/>
			<path fill="#ffbe55" d="M349.459,179.679c0.467-1.657,1.51-2.695,2.459-3.639c0.992-0.992,2.02-2.013,2.039-3.439     c0.02-1.295-0.93-2.461-1.938-3.695c-0.85-1.046-1.777-2.188-2.252-3.499l8.779,0.117c-0.51,1.301-1.471,2.416-2.348,3.437     c-1.037,1.207-2.018,2.35-2.035,3.643c-0.021,1.427,0.979,2.479,1.945,3.493c0.922,0.97,1.936,2.036,2.357,3.709L349.459,179.679     z"/>
			<path fill="#0B4870" d="M363.189,163.781l-18.016-0.248c-0.494-0.005-0.893-0.413-0.883-0.907v-0.238     c0.008-0.496,0.416-0.895,0.91-0.887l18.016,0.244c0.496,0.009,0.893,0.414,0.885,0.909l-0.002,0.239     C364.094,163.39,363.686,163.787,363.189,163.781z"/>
			<path fill="#0B4870" d="M362.92,183.706l-18.018-0.246c-0.494-0.006-0.891-0.414-0.885-0.908l0.004-0.241     c0.008-0.495,0.412-0.89,0.908-0.886l18.018,0.246c0.496,0.008,0.893,0.415,0.885,0.908l-0.006,0.241     C363.82,183.315,363.414,183.712,362.92,183.706z"/>
		</g>
		<g>
			<g>
				<path fill="#D3D3D3" d="M272.453,193.786c0.4,0.593,0.248,1.4-0.344,1.805l-13.449,9.147c-0.596,0.402-1.402,0.249-1.807-0.344      l-12.883-18.943c-0.404-0.593-0.248-1.4,0.344-1.804l13.449-9.147c0.594-0.402,1.402-0.251,1.805,0.343L272.453,193.786z"/>
				<path fill="#CCE9FF" d="M259.066,176.25l10.943,16.091c0.352,0.516,0.219,1.221-0.299,1.572l-11.73,7.979      c-0.516,0.354-1.221,0.219-1.572-0.299l-10.943-16.091c-0.354-0.518-0.219-1.222,0.299-1.573l11.729-7.979      C258.012,175.599,258.715,175.732,259.066,176.25z"/>
				<circle fill="#2A94F4" cx="264.565" cy="198.961" r="0.779"/>
			</g>
			<g>
				<path fill="#EEA886" d="M256.092,202.433c0,0-2.176-1.957-3.229-2.776s-3.027-3.229-3.32-3.369      c-0.291-0.142-4.064-7.884-4.68-8.194c-0.613-0.31,0.582-1.354,1.885,0.52c1.301,1.873,3.59,4.283,4.459,4.107      s0.121-2.527,0.689-3.031s0.541-0.146,0.818,0.118c0.277,0.269-0.059,3.188,0.748,4.081c0.805,0.891,0.947,2.701,1.553,3.39      c0.605,0.688,3.527,4.042,3.527,4.042L256.092,202.433z"/>
			</g>
			<g>
				<path fill="#424773" d="M302.951,307.102c0,0,0.471,3.269,0.529,3.759c0.059,0.491,5.236-0.289,5.236-0.289l0.418-3.89      C309.135,306.682,303.598,306.641,302.951,307.102z"/>
			</g>
			<g>
				<path fill="#0E538C" d="M303.426,310.444c0,0-1.641,1.969-3.227,2.827c-1.588,0.858-6.582,1.198-7.52,2.085      c-0.678,0.643,0.035,3.402,6.623,3.347c6.59-0.058,9.768,0.39,10.471-0.669c0.707-1.057-1.02-7.811-1.02-7.811      S307.193,310.785,303.426,310.444z"/>
			</g>
			<g>
				<path fill="#424773" d="M265.857,307.102c0,0,0.471,3.269,0.529,3.759c0.059,0.491,5.236-0.289,5.236-0.289l0.418-3.89      C272.041,306.682,266.504,306.641,265.857,307.102z"/>
			</g>
			<g>
				<path fill="#0E538C" d="M266.33,310.444c0,0-1.639,1.969-3.225,2.827c-1.588,0.858-9.926,1.562-10.863,2.45      c-0.678,0.642,0.697,3.223,9.967,2.981c6.588-0.171,9.766,0.39,10.473-0.669c0.707-1.057-1.021-7.811-1.021-7.811      S270.189,310.822,266.33,310.444z"/>
			</g>
			<g>
				<path fill="#EEA886" d="M290.547,158.183c0,0-6.529-2.438-9.541,2.53c-3.01,4.97-2.719,14.92,0.57,16.145      c3.293,1.223,8.236,0.583,9.922-2.525c1.684-3.111,3.205-7.607,3.133-10.611C294.557,160.717,292.262,159.049,290.547,158.183z"/>
			</g>
			<g>
				<path fill="#EEA886" d="M282.287,177.085c0,0,0.271,1.762-0.178,2.632c-0.449,0.868,8.459,0.891,8.459,0.891      s0.723-4.724,2.094-8.715C294.033,167.902,282.287,177.085,282.287,177.085z"/>
			</g>
			<g>
				<path fill="#ffbe55" d="M292.662,171.893c0,0-0.615,1.015-3.125,0.62c-2.51-0.394-5.572-3.731-6.619-4.098      s-1.057-0.983-1.057-0.983l-0.656,0.959l-1.113,0.069c0,0,1.016-2.985-0.518-4.203c-1.531-1.219,1.59-9.668,9.639-6.855      c0,0,6.182,1.705,5.957,5.221C294.945,166.137,294.045,170.143,292.662,171.893z"/>
			</g>
			<g>
				<path fill="#EEA886" d="M282.027,166.153c0.141-0.59,1.639-2.274,2.215-0.471c0.574,1.806-0.869,4.232-1.672,4.023      C281.766,169.499,281.67,167.649,282.027,166.153z"/>
			</g>
			<g>
				<path fill="#323657" d="M251.619,199.215c0.004-0.001,0.008-0.001,0.012-0.001C251.58,199.236,251.572,199.237,251.619,199.215z      "/>
			</g>
			<g>
				<path fill="#2A94F4" d="M306.084,203.59c-0.258,0.844-1.449,1.552-2.217,1.868c-0.492,0.2-1.043,0.267-1.602,0.159l-0.391-0.066      v-0.009h-0.01c-0.025,0.217-0.059,0.434-0.082,0.658v0.034c0.533,2.483-0.268,11.487-0.709,15.83      c-0.143,1.45-0.25,2.386-0.25,2.386s-27.77-0.243-27.402,0c-0.852-0.342-1.268-2.376-1.443-5.053      c-0.35-5.294,0.268-13.072,0.426-14.964c-0.275,1.967-1.676,7.303-3.344,10.319c-0.658,1.185-2.842,4.895-3.9,4.043      c-5.111-4.075-13.023-19.457-13.531-19.582c0.426-0.183,3.752-1.717,4.219-1.876c0.408-0.132,4.102,3.77,6.336,6.195      c0.992,1.075,1.701,1.858,1.701,1.858c0.641-1.449,2.992-10.596,3.727-13.764c1.641-7.136,1.391-7.429,1.391-7.429      c4.994-1.508,12.58-4.585,12.58-4.585l10.004-0.409c0,0,9.18,2.02,12.797,3.652c0.01,0,0.018,0.017,0.033,0.042      C304.885,183.699,308.418,196.079,306.084,203.59z"/>
			</g>
			<g>
				<path fill="#0B4870" d="M263.883,205.392l-0.836,3.549c0,0-0.91-3.561-0.867-5.41      C263.178,204.608,263.883,205.392,263.883,205.392z"/>
			</g>
			<path fill="#0B4870" d="M309.928,291.532c-0.119-4.353-3.453-23.613-4.268-31.749c-0.732-7.298-2.857-14.925-2.494-21.91     c0.217-4.172,0.236-8.301-1.125-11.197c0.291-1.093-1.125-2.584-0.93-3.913c0,0-25.336-2.87-28.055,1.443     c0,0-3.666,19.146-4.15,23.422c-0.482,4.275-0.805,20.691-1.049,23.365c-0.24,2.672-1.611,34.969-2.902,38.94h8.531     c0,0,6.549-23.479,6.549-34.589c0-10.247,4.303-22.127,7.535-29.662c1.947,7.625,6.93,24.349,8.111,27.143     c1.451,3.436,7.057,37.108,7.057,37.108l6.674-0.153C309.412,309.78,310.049,295.883,309.928,291.532z"/>
			<ellipse fill="#ffbe55" cx="284.373" cy="160.003" rx="5.463" ry="4.685"/>
		</g>
	</g>
</g>
</svg>